<svg xmlns="http://www.w3.org/2000/svg" width="16.73" height="17.5" viewBox="0 0 16.73 17.5">
  <g id="_5c913c4da4c2854c4892f95d8d45f170" data-name="5c913c4da4c2854c4892f95d8d45f170" transform="translate(-31.5 -10)">
    <path id="Path_77" data-name="Path 77" d="M43.273,14.939a.774.774,0,0,0,.777-.755V10.755A.775.775,0,0,0,43.273,10a.754.754,0,0,0-.754.755v3.43A.754.754,0,0,0,43.273,14.939ZM41.768,11.9H37.952v1.139H41.77V11.9Zm4.466,0H44.816v1.134h1.473a.809.809,0,0,1,.8.8v2.638H32.632V13.834a.81.81,0,0,1,.8-.8h1.482V11.9H33.5a2,2,0,0,0-2,2V25.5a1.977,1.977,0,0,0,1.964,2h12.77a2,2,0,0,0,2-2V13.9A2,2,0,0,0,46.234,11.9Zm.854,13.659a.81.81,0,0,1-.8.8H33.432a.809.809,0,0,1-.8-.8v-7.95H47.088ZM35.661,21.032a1.146,1.146,0,1,0-1.145-1.146A1.145,1.145,0,0,0,35.661,21.032Zm4.189,0a1.146,1.146,0,1,0-1.145-1.146A1.145,1.145,0,0,0,39.85,21.032Zm-4.209,4.191A1.146,1.146,0,1,0,34.5,24.077,1.145,1.145,0,0,0,35.641,25.223Zm4.209,0a1.146,1.146,0,1,0-1.145-1.146A1.145,1.145,0,0,0,39.85,25.223Zm4.184-4.191a1.146,1.146,0,1,0-1.145-1.146A1.145,1.145,0,0,0,44.034,21.032Zm-7.609-6.093a.776.776,0,0,0,.779-.755V10.755A.776.776,0,0,0,36.425,10a.754.754,0,0,0-.754.755v3.43A.754.754,0,0,0,36.425,14.939Z" fill="#fff"/>
  </g>
</svg>
