<svg xmlns="http://www.w3.org/2000/svg" width="58.189" height="48.648" viewBox="0 0 58.189 48.648">
  <path id="cart-svgrepo-com" d="M11.131,12.63l-.793-4.765H7.488a3.812,3.812,0,1,0,0,1.906H8.721L9.2,12.63H9.163l4.927,24.792a4.895,4.895,0,0,0-4.536,4.264,4.776,4.776,0,0,0,4.741,5.251H16.2a5.718,5.718,0,1,0,11.436,0H38.118a5.718,5.718,0,1,0,11.436,0h3.812a.953.953,0,1,0,0-1.906H49.22a5.709,5.709,0,0,0-10.768,0H27.3a5.709,5.709,0,0,0-10.768,0H14.294a2.868,2.868,0,0,1-2.119-.946,2.828,2.828,0,0,1-.725-2.207,2.986,2.986,0,0,1,3.024-2.563h.8l21.25-.007h0l10.782,0h0l5.124,0a4.758,4.758,0,0,0,4.753-4.752V12.618ZM3.812,10.724A1.906,1.906,0,1,1,5.718,8.818,1.908,1.908,0,0,1,3.812,10.724Zm40.024,32.4a3.812,3.812,0,1,1-3.812,3.812A3.816,3.816,0,0,1,43.836,43.124Zm-21.918,0a3.812,3.812,0,1,1-3.812,3.812A3.816,3.816,0,0,1,21.918,43.124ZM55.284,29.03,46.917,37.4l-8.088,0L55.284,20.943Zm0-10.782L36.133,37.4l-8.091,0L50.921,14.525h4.363v3.724ZM17.259,37.406,40.137,14.528l8.089,0L25.347,37.4Zm-4.6-16.963,5.909-5.909,8.09,0L14,27.189Zm3.213-5.908-3.66,3.66-.727-3.658Zm-1.427,14.9L29.352,14.531l8.089,0L15.833,36.135c-.02.02-.027.046-.044.066ZM52.436,37.4H49.612l5.671-5.67v2.823A2.849,2.849,0,0,1,52.436,37.4Z" transform="translate(0.5 -4.506)" fill="#fff" stroke="#fff" stroke-width="1"/>
</svg>
