<svg xmlns="http://www.w3.org/2000/svg" width="696" height="190" viewBox="0 0 696 190">
  <g id="Group_7306" data-name="Group 7306" transform="translate(-183 -251.254)">
    <text id="Friends" transform="translate(531 415.254)" fill="#fff" font-size="130" font-family="'CaravanDL2\.0AAA-150', 'Caravan DL \32 \.0 AAA'"><tspan x="-347.555" y="0">Friends</tspan></text>
    <g id="Group_6982" data-name="Group 6982" transform="translate(294.714 290.254)">
      <g id="Group_6972" data-name="Group 6972" transform="translate(-66 -39)">
        <g id="Group_6965" data-name="Group 6965" transform="translate(12.834 11.673)" opacity="0.3" style="mix-blend-mode: multiply;isolation: isolate">
          <g id="Group_6964" data-name="Group 6964">
            <path id="Path_1021" data-name="Path 1021" d="M252.487,240.565c-8.4,0-12.208-3.644-13.918-6.691-2.392-4.274-2.78-9.471-1.157-15.48a18.805,18.805,0,0,1-2.236.147c-4.559,0-7.9-2.072-9.359-5.6-.846,2.521-1.614,5.008-2.305,7.434-2.055,7.2-1.917,10.827-1.442,12.605a4.665,4.665,0,0,1-4,5.845,36.978,36.978,0,0,1-4.015.233c-8.409,0-12.208-3.635-13.918-6.691-2.625-4.671-2.832-10.455-.6-17.19a394.786,394.786,0,0,1,15.428-38.213c2.133-4.792,4.248-9.592,6.294-14.306a12.673,12.673,0,0,0,.941-3.358h-.13a6.22,6.22,0,0,0-1.174.121c-3.963,1.148-7.675,4.843-11.043,10.991a46.4,46.4,0,0,0-6.052,19.918,4.673,4.673,0,0,1-6.493,4.066c-12.64-5.387-14.859-13.788-14.5-19.883.458-7.744,3.807-15.23,9.963-22.249a44.456,44.456,0,0,1,21.04-13.874l.311-.086a45.141,45.141,0,0,1,9.514-1.088,28.278,28.278,0,0,1,15.049,3.98l.224.147c6.872,4.792,10.533,11.8,10.87,20.824.052,1.33.078,2.651.086,3.954.717-1.2,1.442-2.435,2.176-3.687a63.588,63.588,0,0,0,7.857-19.771,4.677,4.677,0,0,1,4.584-3.8h.112c12.45.285,16.9,5.9,18.45,10.559,1.856,5.621,1.744,12.1-.328,19.245a111.764,111.764,0,0,1-6.449,17.293c-.509,1.071-1.07,2.3-1.675,3.652l-.06.13c-3.436,7.08-6.985,15.454-10.55,24.891-3.289,8.711-4.446,15.454-3.436,20.056a4.671,4.671,0,0,1-.768,3.721,4.615,4.615,0,0,1-3.281,1.917A34.926,34.926,0,0,1,252.487,240.565Z" transform="translate(-182.777 -137.211)" fill="#040506"/>
          </g>
        </g>
        <g id="Group_6967" data-name="Group 6967" transform="translate(1.166 3.505)">
          <g id="Group_6966" data-name="Group 6966">
            <path id="Path_1022" data-name="Path 1022" d="M254.636,246.621c-10.1,0-14.807-4.619-16.974-8.487a21.715,21.715,0,0,1-2.374-13.659,13.831,13.831,0,0,1-5.845-2.038c-.147.484-.285.967-.423,1.451-2.055,7.218-1.606,10.041-1.424,10.74a8.163,8.163,0,0,1-6.993,10.222,39.577,39.577,0,0,1-4.395.259c-10.1,0-14.807-4.61-16.974-8.478-3.125-5.56-3.419-12.294-.881-20q2.823-8.2,6.07-16.439a8.035,8.035,0,0,1-3.134.63,8.118,8.118,0,0,1-3.2-.656c-15.282-6.51-16.974-17.4-16.62-23.3.509-8.547,4.144-16.741,10.827-24.356a47.936,47.936,0,0,1,22.689-14.928c.181-.052.371-.1.553-.138a48.136,48.136,0,0,1,10.257-1.174,31.682,31.682,0,0,1,16.879,4.5q.207.13.389.259a27.946,27.946,0,0,1,11.3,16.145,53.081,53.081,0,0,0,4.256-12.605,8.167,8.167,0,0,1,8.021-6.648h.19c14.487.328,19.8,7.226,21.688,12.959,2.089,6.3,1.994,13.477-.285,21.325a115.22,115.22,0,0,1-6.657,17.837c-.483,1.019-1.036,2.219-1.632,3.548l-.112.242c-3.384,6.976-6.89,15.256-10.421,24.6-3.79,10.041-3.885,15.368-3.29,18.07a8.178,8.178,0,0,1-7.08,9.869A39.715,39.715,0,0,1,254.636,246.621Zm-38.1-74.449c-.535.837-1.027,1.675-1.468,2.469a49.566,49.566,0,0,0-4.291,10.369q1.528-3.458,3.134-6.907C214.792,176.11,215.673,174.132,216.536,172.173Z" transform="translate(-181.425 -136.265)" fill="#040506"/>
          </g>
        </g>
        <g id="Group_6969" data-name="Group 6969">
          <g id="Group_6968" data-name="Group 6968">
            <path id="Path_1023" data-name="Path 1023" d="M254.5,246.215c-10.1,0-14.807-4.611-16.974-8.478a21.739,21.739,0,0,1-2.374-13.667,13.942,13.942,0,0,1-5.845-2.029c-.147.484-.285.967-.423,1.442-2.055,7.218-1.606,10.05-1.424,10.74a8.166,8.166,0,0,1-6.993,10.231,39.7,39.7,0,0,1-4.395.259c-10.1,0-14.807-4.619-16.974-8.487-3.125-5.56-3.419-12.286-.88-20q2.823-8.2,6.069-16.439a8.229,8.229,0,0,1-6.337-.026c-15.282-6.51-16.974-17.4-16.62-23.311.51-8.539,4.144-16.732,10.818-24.347a47.912,47.912,0,0,1,22.7-14.936c.181-.052.362-.095.552-.138a48.687,48.687,0,0,1,10.248-1.174,31.74,31.74,0,0,1,16.888,4.507c.13.078.259.164.389.25a28.032,28.032,0,0,1,11.3,16.154,53.608,53.608,0,0,0,4.256-12.605,8.152,8.152,0,0,1,8.021-6.648h.19c14.488.328,19.788,7.226,21.688,12.951,2.089,6.3,1.994,13.477-.285,21.325a116.127,116.127,0,0,1-6.657,17.837c-.483,1.027-1.036,2.227-1.632,3.557l-.112.233c-3.385,6.985-6.89,15.256-10.421,24.6-3.79,10.05-3.885,15.377-3.289,18.07a8.167,8.167,0,0,1-7.088,9.868A39.591,39.591,0,0,1,254.5,246.215Zm-38.1-74.449c-.535.838-1.027,1.675-1.468,2.469a48.95,48.95,0,0,0-4.291,10.378q1.528-3.458,3.134-6.916C214.657,175.712,215.538,173.735,216.4,171.767Z" transform="translate(-181.29 -135.859)" fill="#040506"/>
          </g>
        </g>
        <g id="Group_6971" data-name="Group 6971" transform="translate(3.496 2.331)">
          <g id="Group_6970" data-name="Group 6970">
            <path id="Path_1024" data-name="Path 1024" d="M250.245,237.152c-6.294,0-10.637-2.046-12.9-6.1-2.452-4.369-2.642-9.834-.57-16.24l.1-.276a3.544,3.544,0,0,1-1.045.345,18.5,18.5,0,0,1-2.9.242c-5.353,0-8.7-3.048-8.979-8.15-.009-.268-.026-.535-.026-.82-1.442,3.98-2.7,7.874-3.782,11.655-2.124,7.451-1.96,11.3-1.442,13.218a3.546,3.546,0,0,1-.492,2.884,3.5,3.5,0,0,1-2.512,1.5,34.464,34.464,0,0,1-3.885.233c-6.294,0-10.628-2.055-12.9-6.1-2.452-4.377-2.625-9.851-.518-16.257a396.234,396.234,0,0,1,15.385-38.083c2.158-4.844,4.274-9.661,6.337-14.41,1.39-3.488.958-4.61.95-4.619a1.779,1.779,0,0,0-1.235-.3,7.858,7.858,0,0,0-1.45.155c-4.291,1.217-8.262,5.1-11.794,11.561a47.484,47.484,0,0,0-6.191,20.427,3.54,3.54,0,0,1-1.64,2.8,3.5,3.5,0,0,1-1.856.527,3.451,3.451,0,0,1-1.373-.276c-12.018-5.12-14.133-13.011-13.8-18.735.449-7.485,3.7-14.738,9.678-21.55a43.363,43.363,0,0,1,20.488-13.529l.242-.06a43.868,43.868,0,0,1,9.255-1.071,27.142,27.142,0,0,1,14.444,3.816l.164.112c6.562,4.567,10.05,11.267,10.378,19.909q.155,4.183.009,8.185,2.188-3.536,4.42-7.382a64.7,64.7,0,0,0,8-20.134,3.5,3.5,0,0,1,3.436-2.849h.078c9.454.216,15.3,3.5,17.371,9.756,1.787,5.387,1.666,11.63-.337,18.554a110.6,110.6,0,0,1-6.389,17.112q-.764,1.632-1.684,3.678c-3.5,7.209-7.062,15.618-10.637,25.09-3.367,8.927-4.541,15.895-3.488,20.721a3.5,3.5,0,0,1-3.03,4.231A36.823,36.823,0,0,1,250.245,237.152Z" transform="translate(-181.695 -136.129)" fill="#fff"/>
          </g>
        </g>
      </g>
      <g id="Group_6981" data-name="Group 6981" transform="translate(15.166 -26.559)">
        <g id="Group_6974" data-name="Group 6974" transform="translate(10.621 9.661)" opacity="0.3" style="mix-blend-mode: multiply;isolation: isolate">
          <g id="Group_6973" data-name="Group 6973">
            <path id="Path_1025" data-name="Path 1025" d="M228.178,232.915a17.619,17.619,0,0,1-6.7-1.321c-4.852-1.994-8.038-5.439-9.221-9.972a3.869,3.869,0,0,1,3.661-4.844c8.168-.155,11.137-1.968,12.182-3.039a16.6,16.6,0,0,0,4.274-6.838l.1-.3c.414-1.062.82-2.124,1.226-3.194a20.748,20.748,0,0,1-2.659,1.269,17.662,17.662,0,0,1-6.415,1.355,11.32,11.32,0,0,1-10.05-5.888c-3.16-5.241-2.426-13.244,2.245-24.477.026-.043,1.968-4.274,1.968-4.274,1.079-2.323,2.176-4.68,3.3-7.106,1.312-2.84,1.848-4.066,2.072-4.6a6.358,6.358,0,0,0,.466-2.746c-.147.009-.3.026-.475.052-3.358.958-6.6,4.04-9.609,9.152a40.168,40.168,0,0,0-5.767,16.577,3.874,3.874,0,0,1-5.4,3.177c-10.343-4.507-11.9-11.517-11.371-16.611.656-6.38,3.686-12.545,8.988-18.321a38.867,38.867,0,0,1,17.811-11.422l.181-.043a36.581,36.581,0,0,1,8.409-1.079c5.836,0,10.6,1.822,14.177,5.413a5.04,5.04,0,0,1,.388.466c3.186,4.42,3.756,10.265,1.692,17.38a119.659,119.659,0,0,1-6.415,17.25l-.294.656a97.808,97.808,0,0,0,9.255-15.316,73.533,73.533,0,0,0,6.777-20.661,3.867,3.867,0,0,1,3.773-3.229h.233a21.416,21.416,0,0,1,8.781,1.77,11.254,11.254,0,0,1,6.311,6.121,3.808,3.808,0,0,1,.25,1.027c.1,1.1-.009,2.556-2.512,10.36-1.64,5.137-3.626,11.043-5.9,17.561-2.236,6.45-4.3,12.32-6.13,17.457q-2.707,7.6-3.074,8.634l-.052.138c-.431,1.071-.846,2.15-1.252,3.238a98.008,98.008,0,0,1-5.888,13.469,25.13,25.13,0,0,1-10.481,10.732l-.285.129A21.74,21.74,0,0,1,228.178,232.915Z" transform="translate(-191.922 -138.419)" fill="#040506"/>
          </g>
        </g>
        <g id="Group_6976" data-name="Group 6976" transform="translate(0.967 2.901)">
          <g id="Group_6975" data-name="Group 6975">
            <path id="Path_1026" data-name="Path 1026" d="M229.954,237.925a20.486,20.486,0,0,1-7.8-1.537c-7.235-2.97-9.929-8.124-10.922-11.923a6.775,6.775,0,0,1,6.406-8.47c7.8-.156,9.842-1.839,10.171-2.176a16.162,16.162,0,0,0,2.521-3.238,17.943,17.943,0,0,1-3.92.457,14.272,14.272,0,0,1-12.536-7.287c-2.392-3.972-2.979-8.953-1.718-15.273a6.871,6.871,0,0,1-2.012,1.813,6.793,6.793,0,0,1-6.139.371c-12.588-5.482-13.607-14.608-13.1-19.564.725-7.019,4-13.736,9.739-19.978a41.538,41.538,0,0,1,19.141-12.251l.311-.078a39.548,39.548,0,0,1,9.083-1.157c6.631,0,12.1,2.107,16.223,6.268a6.882,6.882,0,0,1,.691.812,18.529,18.529,0,0,1,3.436,10.231,68.966,68.966,0,0,0,2.374-9.713,6.771,6.771,0,0,1,6.6-5.638h.259a24.473,24.473,0,0,1,9.955,2.012,14.153,14.153,0,0,1,7.839,7.719,6.854,6.854,0,0,1,.432,1.813c.155,1.563.052,3.125-2.633,11.517-1.658,5.154-3.644,11.086-5.923,17.63-2.236,6.458-4.308,12.337-6.139,17.475q-2.707,7.6-3.074,8.634l-.1.242c-.414,1.027-.811,2.072-1.2,3.117a101.3,101.3,0,0,1-6.07,13.874,28.085,28.085,0,0,1-11.69,11.94c-.164.078-.319.155-.492.224A24.59,24.59,0,0,1,229.954,237.925ZM220,167.845c-.4.587-.794,1.217-1.183,1.882a39.944,39.944,0,0,0-4.938,12.355q.868-2.577,2.046-5.422l.1-.225,1.908-4.144C218.618,170.824,219.308,169.348,220,167.845Z" transform="translate(-190.803 -137.636)" fill="#040506"/>
          </g>
        </g>
        <g id="Group_6978" data-name="Group 6978">
          <g id="Group_6977" data-name="Group 6977">
            <path id="Path_1027" data-name="Path 1027" d="M229.842,237.589a20.485,20.485,0,0,1-7.8-1.537c-7.235-2.97-9.929-8.124-10.922-11.923a6.764,6.764,0,0,1,6.406-8.461c7.8-.155,9.842-1.839,10.171-2.176a16.393,16.393,0,0,0,2.521-3.238,17.906,17.906,0,0,1-3.92.449,14.271,14.271,0,0,1-12.536-7.287c-2.392-3.971-2.979-8.944-1.718-15.273a6.789,6.789,0,0,1-5.448,2.754,6.861,6.861,0,0,1-2.7-.561c-12.588-5.482-13.607-14.617-13.1-19.564.725-7.019,4.006-13.745,9.739-19.987a41.627,41.627,0,0,1,19.141-12.251l.311-.078a39.544,39.544,0,0,1,9.083-1.157c6.639,0,12.1,2.115,16.223,6.268a6.135,6.135,0,0,1,.691.812,18.551,18.551,0,0,1,3.436,10.231,68.981,68.981,0,0,0,2.374-9.713,6.755,6.755,0,0,1,6.6-5.629l.259-.009a24.307,24.307,0,0,1,9.955,2.02,14.118,14.118,0,0,1,7.839,7.71,6.93,6.93,0,0,1,.432,1.813c.156,1.571.052,3.125-2.633,11.518-1.658,5.154-3.644,11.094-5.923,17.63-2.236,6.458-4.308,12.338-6.139,17.475q-2.707,7.6-3.074,8.634l-.1.242c-.406,1.036-.811,2.072-1.2,3.125a101.18,101.18,0,0,1-6.07,13.866,27.989,27.989,0,0,1-11.69,11.941c-.164.086-.319.164-.483.233A24.8,24.8,0,0,1,229.842,237.589Zm-9.946-70.08c-.406.6-.8,1.217-1.191,1.891a39.862,39.862,0,0,0-4.938,12.355c.578-1.727,1.26-3.531,2.046-5.431l.1-.224,1.908-4.144C218.506,170.488,219.2,169.012,219.9,167.509Z" transform="translate(-190.691 -137.3)" fill="#040506"/>
          </g>
        </g>
        <g id="Group_6980" data-name="Group 6980" transform="translate(2.895 1.934)">
          <g id="Group_6979" data-name="Group 6979">
            <path id="Path_1028" data-name="Path 1028" d="M226.315,230.086a16.623,16.623,0,0,1-6.337-1.252c-4.619-1.891-7.529-5.034-8.651-9.316a2.909,2.909,0,0,1,2.754-3.635c8.073-.156,11.448-1.9,12.847-3.324a17.688,17.688,0,0,0,4.515-7.252l.078-.216q1.14-2.979,2.271-5.983a21.35,21.35,0,0,1-4.965,2.806,16.673,16.673,0,0,1-6.061,1.286,10.412,10.412,0,0,1-9.229-5.422c-2.987-4.956-2.227-12.674,2.322-23.6l1.942-4.248c1.088-2.305,2.184-4.671,3.307-7.1,1.1-2.383,1.8-3.963,2.107-4.7a6.255,6.255,0,0,0,.354-3.954,2.327,2.327,0,0,0-.63-.069,6.278,6.278,0,0,0-.846.069c-3.635,1.01-7.08,4.239-10.248,9.609a41.266,41.266,0,0,0-5.9,16.974,2.877,2.877,0,0,1-2.883,2.625,2.868,2.868,0,0,1-1.157-.242c-9.817-4.274-11.284-10.853-10.8-15.618.639-6.173,3.583-12.156,8.746-17.768a37.752,37.752,0,0,1,17.363-11.146l.138-.035a35.654,35.654,0,0,1,8.185-1.053c5.569,0,10.11,1.727,13.486,5.128a2.226,2.226,0,0,1,.294.345c3,4.17,3.531,9.739,1.554,16.551a119.16,119.16,0,0,1-6.372,17.112c-.734,1.675-1.4,3.246-1.951,4.619-.25.648-.457,1.226-.639,1.744.8-.855,1.778-1.969,2.944-3.428a94.656,94.656,0,0,0,10.352-16.758A74.474,74.474,0,0,0,252.07,141.9a2.912,2.912,0,0,1,2.832-2.417h.224a20.506,20.506,0,0,1,8.383,1.684,10.325,10.325,0,0,1,5.81,5.595,2.954,2.954,0,0,1,.19.768c.086.95-.034,2.357-2.469,9.972-1.649,5.129-3.626,11.025-5.888,17.544-2.245,6.441-4.3,12.312-6.13,17.44-1.813,5.077-3.108,8.7-3.117,8.737-.432,1.079-.855,2.167-1.26,3.272a97.333,97.333,0,0,1-5.836,13.339,24.154,24.154,0,0,1-10.084,10.335l-.207.1A20.916,20.916,0,0,1,226.315,230.086Z" transform="translate(-191.027 -137.524)" fill="#fff"/>
          </g>
        </g>
      </g>
    </g>
  </g>
</svg>
