<svg xmlns="http://www.w3.org/2000/svg" width="377.238" height="131.467" viewBox="0 0 377.238 131.467">
  <g id="Group_6791" data-name="Group 6791" transform="translate(-370.335 -176.788)">
    <path id="Path_982" data-name="Path 982" d="M395.909,203.074q-.006.421-.01.84c1.217-.409,1.624-1.648,2.712-2.146,0-.168.006-.335.006-.5-1.016.287-1.545,1.041-2.533,1.476C395.97,203.03,396.049,202.9,395.909,203.074Z" transform="translate(86.112 27.225)" fill="#2a94a2"/>
    <path id="Path_983" data-name="Path 983" d="M746.945,209.554a52.782,52.782,0,0,1-4.76-9.39c-.328-.99,1.19-1.231.055-2.425-7.51-8.006-23.333-14.947-39.557-18.97-1.667-.128-3.344-.256-5-.378-18.424-3.388-41.186-.663-57.291,1.372q-11.822.1-23.632.2c-10.044,1.047-20.787,1.008-30.11,2.231-40.918,5.392-75.979,11.224-109.323,20.118a142.7,142.7,0,0,0-15.925,5.791c-1.919.783-5.16.6-7.178,1.345-2.977,1.083-6.3,2.8-9.408,3.75-.7,0-1.425-.006-2.141-.012-.486.576-.989,1.149-1.48,1.723-1.851.624-4.013.415-5.749,1.006-12.381,4.184-22.506,9.679-31.914,15.4-.942.566-3.284.81-4.32,1.359-2.3,1.215-2.908,2.83-5.122,4.13-.559.314-2.363.285-2.879.671-14.774,10.981-28.306,27.719-16.2,43.234,2.875,3.679,13.153,9.03,19.009,11.561q2.149.363,4.286.721c34.294,13.712,108.576,19.044,160.7,12.454,51.145-6.473,86.318-13.226,123.085-26.611,2.243-.818,3-2.57,5.114-3.438,15.213-6.256,22.988-12.991,33.5-21.628,2.047-1.682,6.069-3.725,8.014-5.5,5.8-5.264,9.336-11.361,14.049-16.9,4.325-5.08,3.915-13.753,4.8-18.348C746.527,212.176,747.675,210.773,746.945,209.554Zm-84.39-28.96c27.816-.068,37.48.791,55.619,7.287-2.653.457-4.687-.992-7.105-1.436-9.511-1.719-20.983-3.132-29.245-4-4.414-.463-11.374-.047-15-1.132-1.425-.01-2.849-.019-4.291-.031C662.543,181.058,662.543,180.823,662.556,180.594ZM513.91,305.505c-.478-.006-.96-.008-1.429-.008a3.216,3.216,0,0,1,.013-.349c.478,0,.955.01,1.425.01C513.919,305.274,513.91,305.389,513.91,305.505Zm224.936-87.683c1.3,3.241-5.519,18.829-12.07,23.153,1.036.862.29.554,2.84.711,0,.231-.008.465-.008.7-1.446-.014-2.87-.016-4.295-.029-1.552,4.568-8.159,8.09-12.479,11.363-2.431,1.837-3.314,3.746-5.864,5.508-1.932,1.335-7.532,3.2-6.581,4.814a37.667,37.667,0,0,1-7.233,3.076c1.024.872-.192.4,2.12.707-.989.38-2.418.3-3.591.671-5.22,1.645-8.364,4.834-13.771,6.5-.013.463-.026.926-.043,1.384a9.078,9.078,0,0,0-2.87.331c-4.175.506-12.134,4.33-15.187,5.8-.478-.12-.951-.236-1.407-.355-1.552.326-2.286,1.665-3.655,2.054-3.962,1.145-7.532,1.248-11.5,2.357-2.388.665-6.282,1.5-8.654,2.372-.495.459-.985.921-1.471,1.376-3.194.866-6.948.227-10.044.977-2.551.62-3.135,1.554-7.2,1.686.456.605.124.343.7.7-1.561,1.223-5.122.066-7.894.992-.009.231-.009.463-.026.692-1.723-.855-6.692.816-9.336,1.331-1.429-.014-2.87-.017-4.3-.031-1.812.392-4.674,2.1-6.508,2.388-1.766.283-6.751-.219-10.01.283-7.732,1.2-18.928,2.868-27.3,3.642-2.188.2-5.587-.446-9.306-.056-1.42.145-3.881.915-5.749,1.343q-3.231-.183-6.44-.38c-3.446.31-5.335.535-9.327.63q-5.355-.028-10.735-.064c-14.654,1.762-46.1-.907-57.883-2.791-4.99-.8-9.519-.395-14.292-1.479-22.9-5.2-45.873-11.664-56.659-21.5-2.819-2.566-4.836-10.945-3.932-13.894.5-.692.989-1.382,1.5-2.07a10.092,10.092,0,0,1,1.642-7.96c2.883-3.7,7.992-9.815,12.522-13.1,2.981-2.171,7.237-3.487,9.468-6.183.947.008,1.9.01,2.849.017,2.056-4.894,25.142-13.958,33.377-16.776,15.345-5.248,30.375-11.336,46.957-16,5.122-1.444,10.027-1.969,15.831-3.025,3.766-.682,8.056-2.44,11.528-3.39,2.568-.7,5.02-.359,7.9-.992,3.847-.835,8.914-2.618,12.974-3.386,2.648-.5,8.1-1.182,12.215-1.655,1.305-.149,2.491.463,2.853.366,1.4-.382,2.312-1.372,4.346-1.709,12.321-2.027,24.067-2.752,37.344-4.615,2.768-.39,11.485-1.2,12.884-.614,3.915-.161,7.963-1.444,10.756-.624q1.791.006,3.587.021c-.021.227-.021.463-.026.692-5.416,1-13.87.426-19.41,3-.772.665-.23.4-.026,1.39-2.064-.279-11.451.508-14.364,1.64-1.437.564-.87,1.692-2.917,2.062-1.906-.01-3.809-.023-5.719-.037-1.7.279-3.838,1.264-5.779,1.7-.525.7-.269,1.072-.751,1.384-2.039.963-8.995,1.246-10.108,3.4a43.841,43.841,0,0,0-5.007-.38c-.009.347-.009.692-.03,1.041-4.981.093-12.539,4.13-14.471,5.8a6.215,6.215,0,0,1-2.124-.357c-1.8.5-.849-.093-1.467,1.031q-2.514.155-5.02.316a6.432,6.432,0,0,1-.755,1.725c-2.286,1.5-4.606,1.444-7.941,2.38-1.672.467-1.006,1.314-2.2,2.066l-7.216,2.033c-1.006.678-.4,1.477-1.484,2.074-1.2.225-2.4.446-3.6.669-.26.574-.508,1.155-.768,1.725-3.531,1.818-12.487,4.369-14.5,6.849-.584.347-.256.083-.734.684.576.362.273.087.691.7,3.42-.861,5.685-2.475,9.4-3.062.013-.343.013-.692.026-1.043,5.779-.636,8.56-4.058,12.326-5.809,3.936-1.839,8.722-3.107,13-4.774,1.975-.764,2.87-2.444,5.105-3.087,2.218-.645,4.691-.537,6.474-1.345,2.486-1.128,4.517-2.789,7.263-3.768q1.8-.164,3.587-.324c3.382-1.262,7.178-2.979,10.842-4.095,1.2-.105,2.393-.217,3.587-.32,4.4-1.182,9.293-3.161,13.72-4.423,2.836-.8,5.2-.345,7.182-1,12.91-4.21,29.4-7.045,45.344-9.77,14.607-2.489,39.941.308,52.915,2.068,2.849.021,5.719.037,8.59.058,4.06.866,23.235,4.9,26.361,4.326,4.862.5,2.491,1.343,4.934,2.808,1.7,1.012,5.954,1.157,7.813,2.124,1.8.94.857,2.149,2.06,3.483,1.305,1.448,4.146,2.667,5.6,4.2-7.007,2.25-5.907,6.243-13.1,8.237,0,.227-.013.459-.013.69.469.006.947.006,1.429.008,2.755-1.359,7.447-2.721,6.572-4.81,2.111-.262,3.007-.609,5.745-1,.235.355,2.179,6.7,1.953,7.295C739.921,214.583,738.057,215.843,738.846,217.822ZM600.838,186.793c-.9,1-.26.281-2.162.678C599.648,186.926,599.128,187.074,600.838,186.793Z" transform="translate(0)" fill="#2a94a2"/>
  </g>
</svg>
