<svg xmlns="http://www.w3.org/2000/svg" width="339.449" height="161.276" viewBox="0 0 339.449 161.276">
  <g id="Group_6748" data-name="Group 6748" transform="translate(17.466) rotate(9)">
    <path id="Path_982" data-name="Path 982" d="M395.909,203.074q-.006.421-.01.84c1.217-.409,1.624-1.648,2.712-2.146,0-.168.006-.335.006-.5-1.016.287-1.545,1.041-2.533,1.476C395.97,203.03,396.049,202.9,395.909,203.074Z" transform="translate(-299.502 -157.516)" fill="#2a94a2"/>
    <path id="Path_983" data-name="Path 983" d="M695.789,204.616a44.532,44.532,0,0,1-4.113-7.975c-.284-.84,1.028-1.046.048-2.06-6.49-6.8-20.164-12.694-34.184-16.111-1.441-.109-2.889-.218-4.319-.321-15.922-2.878-35.592-.563-49.509,1.165q-10.216.087-20.422.168c-8.679.89-17.964.856-26.02,1.895-35.36,4.579-65.659,9.533-94.473,17.086a124.716,124.716,0,0,0-13.762,4.918c-1.658.665-4.46.511-6.2,1.142-2.573.919-5.444,2.379-8.13,3.185-.608,0-1.231-.005-1.85-.01-.42.49-.855.976-1.279,1.463-1.6.53-3.468.353-4.968.854A136.378,136.378,0,0,0,399.025,223.1c-.814.481-2.838.688-3.734,1.155-1.99,1.032-2.513,2.4-4.426,3.507-.483.267-2.042.242-2.488.57-12.767,9.326-24.461,23.541-14,36.718,2.484,3.125,11.366,7.669,16.427,9.819q1.858.308,3.7.612c29.636,11.645,93.828,16.174,138.873,10.577,44.2-5.5,74.593-11.233,106.366-22.6,1.938-.695,2.595-2.183,4.419-2.92,13.146-5.313,19.865-11.033,28.947-18.369,1.769-1.428,5.245-3.164,6.925-4.667,5.016-4.471,8.068-9.648,12.14-14.351,3.737-4.315,3.383-11.68,4.15-15.582C695.428,206.842,696.419,205.651,695.789,204.616Zm-72.927-24.6c24.037-.058,32.389.672,48.064,6.188-2.292.388-4.05-.842-6.14-1.219-8.219-1.46-18.133-2.66-25.272-3.393-3.815-.393-9.829-.04-12.962-.962-1.231-.009-2.462-.016-3.708-.026C622.851,180.415,622.851,180.215,622.862,180.02ZM494.408,286.106c-.413-.005-.829-.007-1.235-.007a2.692,2.692,0,0,1,.011-.3c.413,0,.826.009,1.231.009C494.415,285.909,494.408,286.008,494.408,286.106ZM688.79,211.638c1.12,2.753-4.769,15.991-10.43,19.664.9.732.251.47,2.455.6,0,.2-.007.395-.007.591-1.25-.012-2.48-.014-3.712-.025-1.341,3.879-7.05,6.871-10.784,9.65-2.1,1.56-2.864,3.181-5.068,4.678-1.67,1.133-6.509,2.718-5.687,4.088a32.85,32.85,0,0,1-6.251,2.613c.885.74-.166.342,1.832.6-.855.323-2.09.256-3.1.57-4.511,1.4-7.227,4.106-11.9,5.52-.011.393-.022.786-.037,1.176a7.974,7.974,0,0,0-2.48.281c-3.608.43-10.486,3.678-13.124,4.925-.413-.1-.822-.2-1.216-.3-1.341.277-1.976,1.414-3.159,1.744-3.424.972-6.509,1.06-9.94,2-2.064.565-5.429,1.27-7.478,2.014-.428.39-.851.783-1.272,1.169-2.76.735-6,.193-8.679.83-2.2.526-2.709,1.319-6.225,1.432.394.514.107.291.6.593-1.349,1.039-4.427.056-6.822.842-.007.2-.007.393-.022.588-1.489-.726-5.783.693-8.068,1.13-1.235-.012-2.48-.014-3.715-.026-1.566.333-4.039,1.783-5.624,2.028-1.526.24-5.834-.186-8.65.24-6.682,1.019-16.357,2.435-23.591,3.093-1.891.174-4.828-.379-8.042-.047-1.227.123-3.354.777-4.968,1.14q-2.792-.155-5.565-.323c-2.978.263-4.611.454-8.06.535q-4.627-.024-9.277-.054c-12.664,1.5-39.838-.77-50.021-2.37-4.312-.677-8.226-.335-12.35-1.256-19.792-4.418-39.642-9.906-48.963-18.264-2.436-2.179-4.18-9.3-3.4-11.8.435-.588.855-1.174,1.294-1.758a8.45,8.45,0,0,1,1.419-6.76c2.491-3.146,6.907-8.336,10.821-11.122,2.576-1.844,6.254-2.962,8.182-5.251.818.007,1.644.009,2.462.014,1.776-4.157,21.727-11.854,28.843-14.247,13.261-4.457,26.249-9.627,40.578-13.586,4.426-1.226,8.665-1.672,13.681-2.569,3.254-.579,6.962-2.072,9.962-2.879,2.219-.6,4.338-.305,6.826-.842,3.324-.709,7.7-2.223,11.212-2.876,2.289-.423,7-1,10.556-1.405a13.367,13.367,0,0,1,2.466.311c1.213-.325,2-1.165,3.756-1.451,10.648-1.721,20.8-2.337,32.271-3.92,2.392-.332,9.925-1.018,11.134-.521,3.383-.137,6.881-1.226,9.3-.53q1.548.005,3.1.018c-.018.193-.018.393-.022.588-4.681.853-11.986.361-16.773,2.546-.667.565-.2.342-.022,1.181-1.784-.237-9.9.432-12.413,1.393-1.242.479-.752,1.437-2.521,1.751-1.648-.009-3.291-.019-4.942-.032-1.471.237-3.317,1.074-4.994,1.444-.453.593-.232.911-.649,1.176-1.762.818-7.773,1.058-8.735,2.888a38.544,38.544,0,0,0-4.327-.323c-.007.295-.007.588-.026.884-4.3.079-10.836,3.507-12.505,4.925a5.454,5.454,0,0,1-1.835-.3c-1.555.425-.733-.079-1.268.876q-2.173.132-4.338.268a5.418,5.418,0,0,1-.652,1.465c-1.976,1.27-3.981,1.226-6.863,2.021-1.445.4-.87,1.116-1.9,1.755l-6.236,1.727c-.87.576-.346,1.254-1.282,1.762-1.036.191-2.075.379-3.107.569-.225.488-.439.981-.664,1.465-3.052,1.544-10.791,3.711-12.527,5.816-.5.295-.221.07-.634.581.5.307.236.074.6.593,2.956-.732,4.913-2.1,8.119-2.6.011-.291.011-.588.022-.886,4.994-.54,7.4-3.446,10.651-4.934,3.4-1.562,7.537-2.639,11.234-4.055,1.706-.649,2.48-2.076,4.412-2.621s4.054-.456,5.595-1.142c2.149-.958,3.9-2.369,6.277-3.2q1.554-.139,3.1-.275c2.923-1.072,6.2-2.53,9.369-3.478,1.036-.089,2.068-.184,3.1-.272,3.8-1,8.031-2.685,11.857-3.757,2.451-.683,4.5-.293,6.206-.846,11.156-3.576,25.4-5.983,39.185-8.3,12.623-2.114,34.516.261,45.727,1.756,2.462.018,4.942.032,7.423.049,3.509.735,20.079,4.16,22.781,3.674,4.2.426,2.152,1.14,4.264,2.384,1.471.86,5.145.983,6.752,1.8,1.559.8.741,1.825,1.78,2.958,1.128,1.23,3.582,2.265,4.839,3.565-6.055,1.911-5.1,5.3-11.318,7,0,.193-.011.39-.011.586.405.005.818.005,1.235.007,2.381-1.155,6.435-2.311,5.68-4.085,1.824-.223,2.6-.518,4.964-.853.2.3,1.883,5.69,1.688,6.2C689.719,208.886,688.108,209.957,688.79,211.638ZM569.528,185.286c-.774.847-.225.239-1.869.576C568.5,185.4,568.05,185.524,569.528,185.286Z" transform="translate(-370.335 -176.788)" fill="#2a94a2"/>
  </g>
</svg>
