<svg xmlns="http://www.w3.org/2000/svg" xmlns:xlink="http://www.w3.org/1999/xlink" width="1222.879" height="827.907" viewBox="0 0 1222.879 827.907">
  <defs>
    <clipPath id="clip-path">
      <rect id="Rectangle_77" data-name="Rectangle 77" width="1222.879" height="827.907" fill="none"/>
    </clipPath>
    <clipPath id="clip-path-2">
      <rect id="Rectangle_76" data-name="Rectangle 76" width="1222.885" height="827.908" fill="none"/>
    </clipPath>
    <clipPath id="clip-path-3">
      <rect id="Rectangle_74" data-name="Rectangle 74" width="721.335" height="733.874" fill="none"/>
    </clipPath>
    <clipPath id="clip-path-4">
      <rect id="Rectangle_75" data-name="Rectangle 75" width="571.117" height="670.963" fill="none"/>
    </clipPath>
  </defs>
  <g id="Group_6822" data-name="Group 6822" transform="translate(0)" opacity="0.677" style="mix-blend-mode: overlay;isolation: isolate">
    <g id="Group_176" data-name="Group 176" transform="translate(0)" clip-path="url(#clip-path)">
      <g id="Group_175" data-name="Group 175" transform="translate(0 -0.001)">
        <g id="Group_174" data-name="Group 174" clip-path="url(#clip-path-2)">
          <g id="Group_170" data-name="Group 170" transform="translate(91.129 82.861)" opacity="0.3" style="mix-blend-mode: multiply;isolation: isolate">
            <g id="Group_169" data-name="Group 169">
              <g id="Group_168" data-name="Group 168" clip-path="url(#clip-path-3)">
                <path id="Path_356" data-name="Path 356" d="M501.908,740.154c-59.682,0-86.692-25.835-98.837-47.511-17-30.31-19.762-67.22-8.237-109.886a132.521,132.521,0,0,1-15.881,1c-32.329,0-56.078-14.719-66.428-39.762q-9.01,26.871-16.4,52.791c-14.574,51.115-13.61,76.87-10.231,89.5a33.134,33.134,0,0,1-28.382,41.491,260.915,260.915,0,0,1-28.5,1.677c-59.669,0-86.692-25.848-98.837-47.524-18.614-33.161-20.066-74.243-4.3-122.058A2820.573,2820.573,0,0,1,235.444,288.57c15.181-34.085,30.165-68.118,44.725-101.635,4.884-12.356,6.3-19.854,6.653-23.841-.277,0-.581-.013-.9-.013a46.356,46.356,0,0,0-8.356.9c-28.145,8.132-54.521,34.363-78.4,78.019-26.27,47.96-40.725,95.55-42.97,141.437A33.144,33.144,0,0,1,110.1,412.3C20.358,374.06,4.583,314.444,7.157,271.144c3.261-55.009,27.062-108.17,70.718-157.991C120.792,64.19,171.062,31.042,227.3,14.62c.739-.211,1.492-.4,2.244-.568a319.408,319.408,0,0,1,67.511-7.775c40.4,0,76.355,9.531,106.863,28.29.541.33,1.069.686,1.584,1.043,48.831,34.032,74.811,83.787,77.2,147.866q.535,14.178.581,28.079,7.7-12.851,15.472-26.217C527.519,135.9,546.291,88.678,554.568,45a33.146,33.146,0,0,1,32.554-26.983c.251,0,.5,0,.752.013,88.434,1.993,120.051,41.848,131.008,74.93,13.2,39.907,12.435,85.886-2.3,136.684-13.346,46.019-28.752,87.325-45.821,122.81-3.591,7.564-7.577,16.264-11.868,25.874-.145.317-.29.647-.449.964-24.382,50.243-49.583,109.7-74.89,176.723-23.366,61.847-31.577,109.767-24.422,142.44a33.116,33.116,0,0,1-28.726,40.026,260.914,260.914,0,0,1-28.5,1.677" transform="translate(-6.908 -6.273)" fill="#040506"/>
              </g>
            </g>
          </g>
          <path id="Path_357" data-name="Path 357" d="M520.477,785.475c-71.722,0-105.134-32.752-120.526-60.223-15.841-28.237-21.478-60.752-16.871-97.015a98.421,98.421,0,0,1-41.5-14.442c-1.016,3.432-2.007,6.865-2.983,10.27-14.6,51.26-11.432,71.339-10.112,76.263a58.02,58.02,0,0,1-49.663,72.633,287.892,287.892,0,0,1-31.234,1.822c-71.708,0-105.12-32.752-120.526-60.21-22.165-39.511-24.264-87.286-6.218-142.018q19.98-58.237,43.075-116.724a57.947,57.947,0,0,1-45-.2C10.439,409.4-1.574,332.109.908,290.143c3.6-60.659,29.452-118.836,76.844-172.908C123.837,64.668,178.054,29,238.9,11.229c1.294-.383,2.614-.713,3.934-1a344.579,344.579,0,0,1,72.791-8.343c45.055,0,85.4,10.759,119.879,31.986.95.568,1.875,1.175,2.772,1.809,40.58,28.277,67.761,67.352,80.223,114.652,14.746-31.313,24.871-61.266,30.2-89.49a58.008,58.008,0,0,1,56.976-47.22c.449,0,.884.013,1.333.013,102.9,2.337,140.565,51.3,154.044,91.972,14.812,44.765,14.125,95.708-2.033,151.43-13.716,47.326-29.637,89.939-47.3,126.652-3.432,7.274-7.353,15.8-11.551,25.227-.264.568-.515,1.135-.792,1.69-24.066,49.57-48.963,108.342-74.005,174.651-26.93,71.339-27.577,109.16-23.379,128.328a58.012,58.012,0,0,1-50.3,70.072,287.5,287.5,0,0,1-31.221,1.822M249.947,256.849c-3.842,5.941-7.327,11.894-10.416,17.544-13.6,24.831-23.775,49.451-30.508,73.662q10.871-24.594,22.257-49.069,9.426-21.208,18.666-42.138" transform="translate(7.66 22.976)" fill="#040506"/>
          <path id="Path_358" data-name="Path 358" d="M519.85,783.592c-71.722,0-105.134-32.752-120.526-60.224-15.841-28.237-21.478-60.752-16.871-97.015a98.419,98.419,0,0,1-41.5-14.442c-1.016,3.432-2.007,6.865-2.983,10.271-14.6,51.26-11.432,71.339-10.112,76.263a58.02,58.02,0,0,1-49.663,72.632,287.923,287.923,0,0,1-31.234,1.822c-71.708,0-105.12-32.752-120.526-60.21-22.165-39.511-24.264-87.286-6.218-142.018q19.98-58.237,43.075-116.724a57.947,57.947,0,0,1-45-.2C9.811,407.519-2.2,330.226.28,288.26c3.6-60.659,29.452-118.836,76.844-172.908,46.085-52.567,100.3-88.236,161.146-106,1.294-.383,2.614-.713,3.934-1A344.58,344.58,0,0,1,314.995,0c45.055,0,85.4,10.759,119.879,31.986.95.568,1.875,1.175,2.772,1.809,40.58,28.277,67.761,67.352,80.223,114.652,14.746-31.313,24.871-61.266,30.2-89.49a58.008,58.008,0,0,1,56.976-47.22c.449,0,.885.013,1.333.013,102.9,2.337,140.565,51.3,154.044,91.972,14.812,44.765,14.125,95.708-2.033,151.43-13.716,47.326-29.637,89.939-47.3,126.652-3.432,7.274-7.353,15.8-11.551,25.227-.264.568-.515,1.135-.792,1.69-24.066,49.57-48.963,108.342-74.005,174.651-26.93,71.339-27.577,109.16-23.379,128.328a58.012,58.012,0,0,1-50.3,70.072,287.5,287.5,0,0,1-31.221,1.822M249.319,254.966c-3.842,5.941-7.327,11.894-10.416,17.544-13.6,24.831-23.775,49.451-30.508,73.662q10.871-24.594,22.257-49.069,9.426-21.208,18.666-42.138" transform="translate(-0.003 0.001)" fill="#040506"/>
          <path id="Path_359" data-name="Path 359" d="M488.592,718.552c-44.686,0-75.51-14.561-91.616-43.287-17.4-31.009-18.746-69.807-4-115.3.211-.647.436-1.294.673-1.954a25.119,25.119,0,0,1-7.406,2.4,132.448,132.448,0,0,1-20.607,1.743c-37.993,0-61.834-21.623-63.761-57.847-.092-1.9-.172-3.842-.2-5.875-10.231,28.29-19.194,55.96-26.838,82.771-15.076,52.923-13.9,80.276-10.257,93.9a24.846,24.846,0,0,1-21.293,31.115,251.028,251.028,0,0,1-27.59,1.637c-44.686,0-75.51-14.574-91.616-43.287-17.425-31.062-18.653-69.9-3.643-115.417A2810.952,2810.952,0,0,1,229.652,278.743c15.313-34.389,30.363-68.619,45.016-102.309,9.861-24.8,6.785-32.726,6.746-32.792-1.122-1.32-4.172-2.165-8.805-2.165a54.971,54.971,0,0,0-10.271,1.109c-30.495,8.647-58.666,36.263-83.761,82.111-26.864,49.069-41.663,97.873-43.973,145.014a24.851,24.851,0,0,1-34.574,21.65C14.738,355.02-.3,298.954,2.118,258.321,5.26,205.187,28.375,153.7,70.8,105.307c41.848-47.762,90.81-80.078,145.5-96.051.554-.158,1.109-.3,1.677-.422a311.664,311.664,0,0,1,65.755-7.577c38.838,0,73.332,9.1,102.52,27.049q.614.376,1.188.792c46.587,32.462,71.365,80.038,73.662,141.371q1.109,29.7.106,58.151,15.5-25.128,31.379-52.422c29.24-50.257,48.356-98.362,56.791-142.981a24.872,24.872,0,0,1,24.422-20.237c.185,0,.383,0,.568.013C641.488,14.51,682.979,37.81,697.7,82.245c12.673,38.283,11.868,82.613-2.389,131.774-13.214,45.583-28.462,86.454-45.333,121.516-3.63,7.67-7.643,16.422-11.96,26.1-24.831,51.194-50.138,110.876-75.524,178.136-23.934,63.365-32.263,112.87-24.752,147.14a24.868,24.868,0,0,1-21.557,30.019,254.168,254.168,0,0,1-27.59,1.624" transform="translate(22.964 15.326)" fill="#fff"/>
          <g id="Group_173" data-name="Group 173" transform="translate(651.762 156.945)" opacity="0.3" style="mix-blend-mode: multiply;isolation: isolate">
            <g id="Group_172" data-name="Group 172">
              <g id="Group_171" data-name="Group 171" clip-path="url(#clip-path-4)">
                <path id="Path_360" data-name="Path 360" d="M306.808,682.849a124.906,124.906,0,0,1-47.6-9.386c-34.429-14.152-57.068-38.626-65.451-70.811A27.428,27.428,0,0,1,219.76,568.3c57.953-1.162,79.075-14.033,86.494-21.61,15.208-15.5,25.425-31.854,30.349-48.58.224-.7.462-1.413.726-2.1q4.376-11.327,8.7-22.706a150.024,150.024,0,0,1-18.864,9.016c-16.2,6.376-31.524,9.61-45.557,9.61-30.217,0-54.9-14.455-71.392-41.808-22.429-37.174-17.2-94.031,15.986-173.806.132-.317,13.941-30.349,13.941-30.349,7.683-16.449,15.485-33.214,23.445-50.442,9.32-20.184,13.122-28.9,14.666-32.66,2.759-7.591,3.881-14.125,3.353-19.485-1.03.053-2.165.158-3.379.317-23.868,6.838-46.824,28.712-68.25,65.029-23.59,39.973-37.372,79.563-40.963,117.675a27.432,27.432,0,0,1-38.27,22.587C57.255,316.98,46.271,267.185,50.007,231.054c4.673-45.333,26.151-89.108,63.814-130.1,37.056-40.3,79.6-67.59,126.467-81.108.422-.119.845-.224,1.267-.33,21.359-5.069,41.465-7.63,59.722-7.63,41.438,0,75.3,12.924,100.632,38.428a28.779,28.779,0,0,1,2.8,3.287c22.627,31.392,26.666,72.923,12.026,123.43a851.61,851.61,0,0,1-45.6,122.467c-.686,1.571-1.373,3.115-2.033,4.66,22.165-29.254,44.237-65.781,65.7-108.738a523.021,523.021,0,0,0,48.118-146.73,27.421,27.421,0,0,1,26.8-22.878L511.4,25.8c22.627,0,43.59,4.211,62.3,12.528,22.376,9.954,37.478,24.58,44.857,43.471a28.224,28.224,0,0,1,1.756,7.34c.752,7.762-.079,18.1-17.835,73.517C590.791,199.134,576.705,241.1,560.613,287.4c-15.894,45.782-30.547,87.471-43.524,123.906q-19.267,54.039-21.861,61.319c-.119.33-.251.66-.383.99Q490.311,485,486,496.634a694.678,694.678,0,0,1-41.848,95.576c-18.191,34.151-43.22,59.8-74.428,76.237-.647.343-1.307.66-1.967.937-20.831,8.937-41.333,13.465-60.949,13.465" transform="translate(-49.369 -11.885)" fill="#040506"/>
              </g>
            </g>
          </g>
          <path id="Path_361" data-name="Path 361" d="M322.168,720.373a145.343,145.343,0,0,1-55.431-10.931c-51.352-21.1-70.507-57.689-77.53-84.672a48,48,0,0,1,45.491-60.1c55.418-1.109,69.887-13.056,72.223-15.432a116.742,116.742,0,0,0,17.874-23,127.9,127.9,0,0,1-27.841,3.208c-37.267.013-68.87-18.376-89-51.748-16.99-28.171-21.135-63.524-12.224-108.447A48.061,48.061,0,0,1,137.88,384.8c-89.358-38.93-96.619-103.748-92.989-138.915C50.027,196.038,73.3,148.3,114.026,103.973,153.669,60.845,199.4,31.592,249.944,17.018c.739-.211,1.478-.4,2.218-.581,22.917-5.439,44.62-8.185,64.474-8.185,47.115,0,85.886,14.97,115.219,44.5a48.545,48.545,0,0,1,4.9,5.769c15.023,20.845,23.168,45.135,24.409,72.633A492.885,492.885,0,0,0,477.98,62.2,48.041,48.041,0,0,1,524.9,22.179l1.848-.013c25.544,0,49.306,4.818,70.652,14.31,34.283,15.234,49.2,38.2,55.669,54.785a47.286,47.286,0,0,1,3.076,12.845c1.083,11.142.37,22.217-18.719,81.781C625.688,222.519,611.549,264.644,595.4,311.1c-15.921,45.834-30.587,87.576-43.577,124.051q-19.267,54.019-21.861,61.306c-.2.581-.422,1.162-.647,1.743q-4.4,10.95-8.528,22.151a715.331,715.331,0,0,1-43.128,98.467c-20.158,37.874-48.078,66.388-82.982,84.778-1.135.594-2.284,1.148-3.459,1.65-23.406,10.033-46.64,15.129-69.055,15.129M251.5,222.757q-4.257,6.277-8.449,13.373c-17.6,29.821-29.333,59.233-35.036,87.735q6.158-18.356,14.534-38.508c.238-.554.462-1.1.713-1.637l13.544-29.412q7.287-15.624,14.693-31.551" transform="translate(539.021 100.685)" fill="#040506"/>
          <path id="Path_362" data-name="Path 362" d="M321.649,718.814a145.34,145.34,0,0,1-55.431-10.931c-51.352-21.1-70.507-57.689-77.543-84.672a48.016,48.016,0,0,1,45.5-60.1C289.6,562,304.065,550.051,306.4,547.675a116.746,116.746,0,0,0,17.874-23,127.9,127.9,0,0,1-27.841,3.208c-37.267.013-68.87-18.376-89-51.748-16.99-28.171-21.135-63.524-12.224-108.447a48.061,48.061,0,0,1-57.847,15.551C48,344.312,40.742,279.494,44.372,244.326c5.135-49.847,28.409-97.583,69.134-141.912,39.643-43.128,85.372-72.382,135.919-86.956.739-.211,1.479-.4,2.218-.581,22.917-5.439,44.62-8.185,64.474-8.185,47.115,0,85.887,14.97,115.219,44.5a48.531,48.531,0,0,1,4.9,5.769C451.257,77.807,459.4,102.1,460.643,129.6a492.906,492.906,0,0,0,16.818-68.949A48.041,48.041,0,0,1,524.378,20.62l1.848-.013c25.544,0,49.306,4.818,70.652,14.31,34.283,15.234,49.2,38.2,55.669,54.785a47.282,47.282,0,0,1,3.076,12.845c1.082,11.142.37,22.217-18.719,81.781-11.736,36.633-25.874,78.758-42.019,125.213-15.921,45.834-30.587,87.576-43.577,124.051Q532.041,487.61,529.447,494.9c-.2.581-.422,1.162-.647,1.743q-4.4,10.95-8.528,22.151a715.346,715.346,0,0,1-43.128,98.467c-20.158,37.874-48.078,66.388-82.982,84.778-1.135.594-2.284,1.148-3.459,1.65-23.405,10.033-46.639,15.129-69.055,15.129M250.983,221.2q-4.257,6.277-8.449,13.373c-17.6,29.821-29.333,59.233-35.036,87.735q6.158-18.356,14.534-38.508c.238-.554.462-1.1.713-1.637l13.544-29.412q7.287-15.624,14.693-31.551" transform="translate(532.688 81.663)" fill="#040506"/>
          <path id="Path_363" data-name="Path 363" d="M295.79,664.976a117.891,117.891,0,0,1-45-8.871c-32.818-13.478-53.478-35.749-61.412-66.2a20.574,20.574,0,0,1,19.5-25.755c57.372-1.148,81.292-13.5,91.259-23.656,16-16.317,26.785-33.623,32.039-51.445.158-.528.343-1.069.541-1.584q8.119-21.089,16.171-42.428a151.179,151.179,0,0,1-35.26,19.894c-15.392,6.059-29.874,9.135-43.036,9.135-27.683,0-50.336-13.307-65.517-38.494-21.214-35.181-15.841-90.005,16.449-167.628.092-.238,13.835-30.125,13.835-30.125,7.67-16.409,15.472-33.174,23.445-50.428,7.8-16.911,12.845-28.132,14.97-33.359,3.974-10.825,4.9-20.462,2.495-28.052a15.839,15.839,0,0,0-4.449-.488,42.908,42.908,0,0,0-6.007.475c-25.795,7.181-50.27,30.151-72.765,68.276-24.105,40.831-38.191,81.385-41.874,120.513a20.564,20.564,0,0,1-28.7,16.937C52.77,301.325,42.315,254.593,45.8,220.732c4.528-43.828,25.412-86.269,62.058-126.15C144.03,55.216,185.521,28.59,231.17,15.428c.317-.092.634-.172.951-.251,20.845-4.937,40.409-7.445,58.138-7.445,39.551,0,71.761,12.251,95.761,36.409a19.6,19.6,0,0,1,2.1,2.469c21.333,29.584,25.042,69.121,11.01,117.5A844.148,844.148,0,0,1,353.9,285.589c-5.214,11.894-9.954,23.1-13.874,32.858q-2.634,6.832-4.541,12.343c5.7-6.033,12.62-13.954,20.924-24.316,24.831-31.023,49.57-71.062,73.517-118.995A529.542,529.542,0,0,0,478.665,38.807,20.6,20.6,0,0,1,498.77,21.659l1.611-.013c21.663,0,41.689,4.026,59.511,11.947,20.673,9.188,34.547,22.548,41.254,39.7a20.82,20.82,0,0,1,1.32,5.5c.647,6.719-.224,16.686-17.544,70.771-11.67,36.409-25.729,78.322-41.808,124.566C527.219,319.886,512.592,361.548,499.6,398c-12.845,36.013-22.046,61.808-22.138,62.058q-4.574,11.465-8.911,23.194a687.807,687.807,0,0,1-41.478,94.731c-17.518,32.91-41.6,57.6-71.563,73.385-.475.251-.977.489-1.478.7-19.973,8.568-39.564,12.911-58.243,12.911" transform="translate(551.682 94.34)" fill="#fff"/>
        </g>
      </g>
    </g>
  </g>
</svg>
