<svg xmlns="http://www.w3.org/2000/svg" width="138.569" height="22.343" viewBox="0 0 138.569 22.343">
  <g id="Group_7006" data-name="Group 7006" transform="translate(-314.211 -68.436)">
    <g id="Group_6599" data-name="Group 6599" transform="translate(314.211 70.436)">
      <path id="Path_972" data-name="Path 972" d="M337.47,86.549l-4.442-12.7a.584.584,0,0,0-.527-.427h-7.553a.65.65,0,0,0-.574.705v3.88a.65.65,0,0,0,.574.705h4.615a.58.58,0,0,1,.523.414l.237.644.576,1.543c.08.214-.047.458-.239.458h-5.9a.44.44,0,0,0-.389.478v4.8a.44.44,0,0,0,.389.478h6.424a.441.441,0,0,0,.389-.478V84.562c0-.336.372-.436.486-.13l1.073,2.872a.532.532,0,0,0,.421.23h3.387C337.355,87.533,337.632,87.015,337.47,86.549Z" transform="translate(-303.175 -71.03)" fill="#fff"/>
      <path id="Path_973" data-name="Path 973" d="M272.607,84.034h-3.8c-.407,0-.685-.508-.531-.972l2.281-6.874c.154-.464-.123-.972-.531-.972H258.563a.65.65,0,0,1-.574-.705V68.082a.65.65,0,0,1,.574-.705h3.519a.65.65,0,0,1,.574.705v1.843h14.375c.412,0,.69.518.528.983l-4.424,12.7A.584.584,0,0,1,272.607,84.034Z" transform="translate(-257.989 -67.377)" fill="#fff"/>
      <path id="Path_974" data-name="Path 974" d="M400.279,85.687c0,1.387-.67,2.234-1.779,2.234H384.748c-1.109,0-1.779-.847-1.779-2.234V74.517a.65.65,0,0,1,.574-.705h3.519a.65.65,0,0,1,.574.705v7.407a.65.65,0,0,0,.574.705h6.829a.65.65,0,0,0,.574-.705V79.808a.65.65,0,0,0-.574-.705H389.8a.65.65,0,0,1-.574-.705v-3.88a.65.65,0,0,1,.574-.705h9.908a.65.65,0,0,1,.574.705Z" transform="translate(-341.792 -71.263)" fill="#fff"/>
      <path id="Path_975" data-name="Path 975" d="M462.273,85.71c0,1.364-.67,2.211-1.759,2.211H445.862A2.686,2.686,0,0,1,443.49,85v-5.2a.65.65,0,0,0-.574-.705h-.383a.65.65,0,0,1-.574-.705v-3.88a.65.65,0,0,1,.574-.705H461.7a.65.65,0,0,1,.574.705ZM457.052,79.1h-8.3a.65.65,0,0,0-.574.705v2.116a.65.65,0,0,0,.574.705h8.3a.65.65,0,0,0,.574-.705V79.808A.65.65,0,0,0,457.052,79.1Z" transform="translate(-381.281 -71.263)" fill="#fff"/>
      <path id="Path_976" data-name="Path 976" d="M529.214,87.92H511.387a.65.65,0,0,1-.574-.705v-3.88a.65.65,0,0,1,.574-.705h14.958a.65.65,0,0,0,.574-.705V79.808a.65.65,0,0,0-.574-.705h-8.913a.65.65,0,0,0-.574.705v.353a.65.65,0,0,1-.574.705h-3.539a.65.65,0,0,1-.574-.705v-.353a.65.65,0,0,0-.574-.705h-.21a.65.65,0,0,1-.574-.705v-3.88a.65.65,0,0,1,.574-.705h17.827a2.686,2.686,0,0,1,2.372,2.915V85A2.686,2.686,0,0,1,529.214,87.92Z" transform="translate(-427.571 -71.263)" fill="#fff"/>
      <rect id="Rectangle_1307" data-name="Rectangle 1307" width="8.136" height="4.938" rx="1.552" transform="translate(38.928 2.548) rotate(90)" fill="#fff"/>
    </g>
    <g id="Group_6607" data-name="Group 6607" transform="translate(419.226 70.436)">
      <g id="Group_6842" data-name="Group 6842" transform="translate(-2.223)">
        <g id="Group_6602" data-name="Group 6602">
          <path id="Path_978" data-name="Path 978" d="M638.814,87.646a2.6,2.6,0,0,1-.99-.2,2.181,2.181,0,0,1-1.043-.8,4.488,4.488,0,0,0,2.949-1.036,4.992,4.992,0,0,0,1.263-2.045c.472-1.225.938-2.472,1.387-3.71q.251-.689.51-1.387a.45.45,0,0,0-.818-.37,6.9,6.9,0,0,1-3.1,3.369,2.638,2.638,0,0,1-.945.209,1.22,1.22,0,0,1-1.111-.674c-.319-.529-.476-1.7.587-4.251l.416-.9q.355-.761.731-1.573c.255-.552.415-.908.488-1.089a2.457,2.457,0,0,0,.1-1.625,1.116,1.116,0,0,0-1.178-.77,2.541,2.541,0,0,0-.388.032l-.045.009a5.208,5.208,0,0,0-2.968,2.643,10.627,10.627,0,0,0-1.368,3.574,2.063,2.063,0,0,1-1.2-2.079,5.834,5.834,0,0,1,1.656-3.313,7.316,7.316,0,0,1,3.339-2.159,6.873,6.873,0,0,1,1.554-.2,2.969,2.969,0,0,1,2.19.789,3.13,3.13,0,0,1,.161,2.7,25.3,25.3,0,0,1-1.354,3.636q-.267.607-.457,1.079c-.55,1.435-.526,1.924-.323,2.22a.621.621,0,0,0,.52.268.762.762,0,0,0,.112-.008c.348-.052.9-.3,2.069-1.762a22.183,22.183,0,0,0,2.421-3.911,17.68,17.68,0,0,0,1.552-4.562,3.313,3.313,0,0,1,1.086.266,1.316,1.316,0,0,1,.68.562,15.831,15.831,0,0,1-.495,1.728c-.362,1.129-.8,2.43-1.3,3.866s-.952,2.726-1.356,3.861l-.683,1.916c-.093.231-.189.482-.283.735a20.457,20.457,0,0,1-1.235,2.824,4.294,4.294,0,0,1-1.764,1.83A3.53,3.53,0,0,1,638.814,87.646Z" transform="translate(-632.08 -69.303)" fill="#2b6f7d" stroke="#2b6f7d" stroke-width="4"/>
        </g>
      </g>
      <g id="Group_6601" data-name="Group 6601" transform="translate(0)">
        <g id="Group_6600" data-name="Group 6600">
          <path id="Path_977" data-name="Path 977" d="M595.17,84.382c-.775,0-1.26-.192-1.48-.587a2.747,2.747,0,0,1-.018-2.207,56.242,56.242,0,0,1,2.375-5.857c.122-.273.243-.538.366-.8q.145-.307.291-.624a.471.471,0,0,0-.827-.446c-.41.654-.916,1.371-1.5,2.132-.612.806-1.171,1.6-1.664,2.364a5.644,5.644,0,0,0-.82,1.8h-.045c-.471,0-.566-.163-.583-.483a14.5,14.5,0,0,1,.541-3.545c.155-.682.318-1.45.488-2.288a.47.47,0,0,0-.889-.288q-.084.183-.183.391c-.441.975-.95,2.16-1.516,3.534a37.868,37.868,0,0,0-1.411,4.023,7.676,7.676,0,0,0-.374,2.593l-.127,0c-.775,0-1.259-.192-1.481-.587a2.73,2.73,0,0,1-.01-2.2,74.91,74.91,0,0,1,2.9-7.189q.634-1.424,1.229-2.792c.377-.947.385-1.615.027-2.055a1.385,1.385,0,0,0-1.131-.489,2.67,2.67,0,0,0-.526.057l-.03.007a5.189,5.189,0,0,0-2.989,2.78,10.629,10.629,0,0,0-1.265,3.713,2.285,2.285,0,0,1-1.364-2.188,5.783,5.783,0,0,1,1.576-3.453,6.009,6.009,0,0,1,4.9-2.424,4.092,4.092,0,0,1,2.162.555,3.485,3.485,0,0,1,1.492,2.92,18.108,18.108,0,0,1-.252,3.918c-.014.1-.025.171-.036.243a.47.47,0,0,0,.85.342c.77-1.1,1.584-2.38,2.419-3.816a14.01,14.01,0,0,0,1.586-3.825c1.578.133,1.809.829,1.888,1.07a4.866,4.866,0,0,1-.078,2.886,20.176,20.176,0,0,1-1.158,3.109c-.1.221-.217.465-.337.735-.671,1.382-1.369,3.028-2.068,4.879a9.645,9.645,0,0,0-.8,4.094Z" transform="translate(-583.151 -67.27)" fill="#fff" stroke="#fff" stroke-width="2"/>
        </g>
      </g>
      <g id="Group_6605" data-name="Group 6605" transform="translate(16.252)">
        <g id="Group_6602-2" data-name="Group 6602">
          <path id="Path_978-2" data-name="Path 978" d="M638.814,87.646a2.6,2.6,0,0,1-.99-.2,2.181,2.181,0,0,1-1.043-.8,4.488,4.488,0,0,0,2.949-1.036,4.992,4.992,0,0,0,1.263-2.045c.472-1.225.938-2.472,1.387-3.71q.251-.689.51-1.387a.45.45,0,0,0-.818-.37,6.9,6.9,0,0,1-3.1,3.369,2.638,2.638,0,0,1-.945.209,1.22,1.22,0,0,1-1.111-.674c-.319-.529-.476-1.7.587-4.251l.416-.9q.355-.761.731-1.573c.255-.552.415-.908.488-1.089a2.457,2.457,0,0,0,.1-1.625,1.116,1.116,0,0,0-1.178-.77,2.541,2.541,0,0,0-.388.032l-.045.009a5.208,5.208,0,0,0-2.968,2.643,10.627,10.627,0,0,0-1.368,3.574,2.063,2.063,0,0,1-1.2-2.079,5.834,5.834,0,0,1,1.656-3.313,7.316,7.316,0,0,1,3.339-2.159,6.873,6.873,0,0,1,1.554-.2,2.969,2.969,0,0,1,2.19.789,3.13,3.13,0,0,1,.161,2.7,25.3,25.3,0,0,1-1.354,3.636q-.267.607-.457,1.079c-.55,1.435-.526,1.924-.323,2.22a.621.621,0,0,0,.52.268.762.762,0,0,0,.112-.008c.348-.052.9-.3,2.069-1.762a22.183,22.183,0,0,0,2.421-3.911,17.68,17.68,0,0,0,1.552-4.562,3.313,3.313,0,0,1,1.086.266,1.316,1.316,0,0,1,.68.562,15.831,15.831,0,0,1-.495,1.728c-.362,1.129-.8,2.43-1.3,3.866s-.952,2.726-1.356,3.861l-.683,1.916c-.093.231-.189.482-.283.735a20.457,20.457,0,0,1-1.235,2.824,4.294,4.294,0,0,1-1.764,1.83A3.53,3.53,0,0,1,638.814,87.646Z" transform="translate(-632.08 -69.303)" fill="#2b6f7d" stroke="#2b6f7d" stroke-width="4"/>
        </g>
      </g>
      <g id="Group_6606" data-name="Group 6606" transform="translate(18.193)">
        <g id="Group_6602-3" data-name="Group 6602">
          <path id="Path_978-3" data-name="Path 978" d="M638.362,86.415a2.423,2.423,0,0,1-.924-.182,2.035,2.035,0,0,1-.973-.745,4.186,4.186,0,0,0,2.751-.967,4.657,4.657,0,0,0,1.179-1.908c.44-1.142.875-2.306,1.294-3.461q.234-.643.476-1.294a.42.42,0,0,0-.763-.345,6.435,6.435,0,0,1-2.893,3.143,2.463,2.463,0,0,1-.881.2,1.138,1.138,0,0,1-1.036-.629c-.3-.493-.444-1.582.548-3.966l.388-.844q.332-.71.682-1.467c.238-.515.387-.847.456-1.016a2.292,2.292,0,0,0,.1-1.516,1.041,1.041,0,0,0-1.1-.719,2.371,2.371,0,0,0-.362.03l-.042.009A4.858,4.858,0,0,0,634.49,73.2a9.914,9.914,0,0,0-1.277,3.334,1.924,1.924,0,0,1-1.122-1.939,5.442,5.442,0,0,1,1.545-3.091,6.825,6.825,0,0,1,3.115-2.014A6.411,6.411,0,0,1,638.2,69.3a2.77,2.77,0,0,1,2.043.736,2.919,2.919,0,0,1,.15,2.517,23.6,23.6,0,0,1-1.263,3.392q-.249.567-.426,1.007c-.513,1.339-.491,1.8-.3,2.071a.579.579,0,0,0,.485.25.711.711,0,0,0,.1-.008c.325-.048.837-.279,1.931-1.644a20.684,20.684,0,0,0,2.258-3.649,16.5,16.5,0,0,0,1.448-4.256,3.09,3.09,0,0,1,1.013.248,1.228,1.228,0,0,1,.634.524,14.707,14.707,0,0,1-.462,1.612c-.338,1.053-.745,2.267-1.21,3.606s-.888,2.543-1.266,3.6L642.7,81.1c-.086.216-.177.45-.264.686a19.092,19.092,0,0,1-1.152,2.635,4.006,4.006,0,0,1-1.646,1.708A3.293,3.293,0,0,1,638.362,86.415Z" transform="translate(-632.08 -69.303)" fill="#fff" stroke="#fff" stroke-width="2"/>
        </g>
      </g>
    </g>
  </g>
</svg>
