<svg version="1.2" xmlns="http://www.w3.org/2000/svg" viewBox="0 0 154 9" width="154" height="9"><defs><clipPath clipPathUnits="userSpaceOnUse" id="cp1"><path d="m-1643-830h1920v13669h-1920z"/></clipPath></defs><style></style><g clip-path="url(#cp1)"><path  d="m153 4.9c-0.2 0.3-0.5 0.3-0.8 0.3-0.6-0.1-1 0.3-1.5 0.4-0.2 0.1-0.3 0.2-0.5 0.2q-1.1 0-2.1 0-0.4 0-0.9-0.1c-0.3 0-0.6 0-0.9 0-0.4 0.1-0.9 0.1-1.4 0.1-0.5 0-1.2 0.1-1.7 0-0.9-0.2-1.8 0.1-2.7-0.1-1-0.1-1.9 0-2.8 0q-2.5 0-5 0c-1.5 0-3 0-4.5 0-1 0-2 0-2.9 0-1.1 0-2.2 0-3.3 0-1.1 0-2.1 0-3.1 0-0.8 0-1.5 0.1-2.3 0-0.9-0.1-1.9 0.2-2.8-0.1-0.1 0-0.3 0-0.4 0q-1.2 0-2.5 0-1.5 0-3 0c-0.6 0-1.2-0.1-1.8 0-0.6 0-1.2-0.1-1.8-0.1-1.7 0.1-3.4 0-5.2 0q-2 0-4-0.1c-1.4 0-2.8-0.1-4.2 0-1.3 0.1-2.7 0-4 0-0.5 0-1.1 0.1-1.6 0.1q-2.4 0-4.7 0c-0.5 0-0.9 0.1-1.3 0.1q-3.1 0-6.2 0-1.2 0.1-2.5 0.1-0.2 0-0.5 0c-0.6 0-1.1 0-1.7 0q-1.8 0.1-3.6 0.1-2.2 0.1-4.4 0.1-1.9 0.1-3.8 0.2c-1.7 0-3.4 0.1-5.1 0.1-1.3 0.1-2.6 0.1-3.8 0.2q-1.8 0.1-3.6 0.1c-1.4 0.1-2.9 0.1-4.2 0.2-1.6 0.2-3.2 0.2-4.7 0.3q-2.6 0.1-5.2 0.3c-0.3 0-0.5 0-0.7 0.1-0.3 0-0.2 0-0.7-0.3-0.1-0.1-0.3-0.1-0.5-0.1l0.1 0.4q-0.1 0-0.2 0-0.5 0.1-0.9 0.1c-0.2-0.1-0.4-0.2-0.6-0.2-0.1 0-0.3-0.1-0.3 0-0.4 0.2-0.6 0-0.9-0.1 0.2-0.5 0.7-0.2 1.1-0.2 0.1-0.1 0.3 0.1 0.4-0.2 0 0 0.1-0.1 0.1-0.1 0.4 0 0.7 0.1 1 0.1 0.2 0.1 0.5 0.1 0.7 0 0.1-0.2 0.4-0.3 0.6-0.1 0.4-0.3 0.7 0.2 1.1 0.1l-0.6 0.3c0.3 0 0.5 0.1 0.9-0.1l-0.3-0.2c0.7-0.2 1.4-0.5 2.2-0.4 0.5 0.1 0.8 0 1.3-0.1 0-0.1 0.1-0.2 0.1-0.3 0.3 0.1 0.5 0.2 0.8 0.3l-0.1-0.5q-0.7 0-1.4 0c-0.9 0.1-1.9 0-2.9 0.2-1.1 0.1-2.3 0-3.5 0.3-0.4 0.1-0.9 0-1.3 0q-2.3 0.2-4.6 0.4-2.7 0.2-5.3 0.5c-1.6 0.1-3.1 0.3-4.7 0.4-1.1 0-2.2 0.2-3.2 0.3-0.3 0-0.5-0.1-0.8-0.1-0.1 0-0.2 0.2-0.3 0.2q-0.9 0.2-1.9 0.3c-0.1 0-0.2-0.1-0.3-0.1q-0.4-0.3-0.6 0c0 0.1-0.1 0.2-0.1 0.2-0.2-0.1-0.4-0.2-0.6-0.2-0.2 0.1-0.4 0.3-0.5 0.3-0.4-0.3-0.8-0.1-1.3 0-0.3 0-0.6 0-1 0 0.3-0.4 0.7-0.3 1.1-0.2 0.1-0.3 0.3-0.3 0.6-0.4 0.6-0.1 1.3 0 1.9-0.4 1.3-0.1 2.5-0.6 3.8-0.8 1.6-0.2 3.1-0.5 4.7-0.7 1.4-0.2 2.8-0.4 4.2-0.5q2.8-0.4 5.5-0.7 1.2-0.1 2.4-0.2 1.9-0.2 3.8-0.4 1.8-0.1 3.6-0.3 2.7-0.2 5.3-0.4 3-0.3 6-0.6 3-0.2 5.9-0.4c1.8-0.1 3.7-0.2 5.5-0.3 1.5-0.1 3.1-0.2 4.6-0.3 1.2-0.1 2.3-0.1 3.5-0.1q2.8-0.1 5.7-0.2 1.8 0 3.7-0.1c1.1 0 2.3 0 3.4-0.2 1-0.1 1.9 0 2.9-0.1 0.8-0.1 1.8 0 2.6 0 0.7 0 1.3-0.1 2-0.1 0.5 0 1 0 1.5 0q1.8 0 3.7 0c0.1 0 0.3-0.1 0.5-0.1q0.3 0 0.7 0c0.3 0 0.6 0.1 0.9 0 0.7-0.1 1.3 0 2 0 1.6 0 3.2-0.1 4.8-0.1 0.7-0.1 1.3 0 1.9 0 0.4 0 0.7-0.1 1-0.1q2.4 0.1 4.8 0.1c0.7 0 1.5 0.1 2.3 0.1 0.6-0.1 1.2-0.1 1.8-0.2 0.3-0.1 0.6 0.1 1 0.1 1.1 0 2.2 0.2 3.3 0 1-0.1 2.1 0.2 3.1-0.1 0.3-0.1 0.7 0.1 1 0.1q2 0 3.9 0 2-0.1 4-0.2c0.4 0 0.7 0 1.1 0 0.9 0.2 1.8 0 2.8 0q0.4 0 0.8 0c0.2 0 0.3 0.1 0.5 0.1 0.8-0.2 1.6 0 2.4-0.1 1-0.1 2-0.1 3-0.1 0.8 0 1.6-0.1 2.4-0.1 1.1 0 2.2 0 3.2 0 0.5 0.1 1 0 1.5-0.1 0.1 0 0.2 0 0.3 0 1.1 0.2 2.2 0 3.3 0 0.3 0 0.6 0.1 0.9 0.1 0.4 0 0.9 0 1.3-0.1 0.9-0.1 1.9 0.1 2.8 0 0.6 0 1 0.3 1.5 0.5-0.3 0.2-0.5 0.3-0.8 0-0.3 0.6 0.3 0.7 0.5 1l0.8-0.1c-0.5 1-0.4 1-1.6 1.1-0.7 0-1.4 0-2 0.4-0.1 0-0.6-0.1-0.3 0.3-0.2 0-0.3 0-0.5 0-0.4 0.1-0.7 0-1.1 0l-0.1-0.3c-0.3 0.1-0.6 0-1 0.2-0.3 0.3-0.8 0.3-1.2 0.1-0.2-0.2-0.4-0.3-0.6 0-0.2 0.2-0.2-0.4-0.4-0.1-0.1 0.1-0.3 0.1-0.4 0.2-0.2 0-0.4 0-0.6 0-0.7 0.1-1.3-0.1-1.9-0.2-0.2-0.1-0.5-0.2-0.5 0.1 0 0.1-0.2 0.2-0.3 0.2-1-0.2-1.9-0.2-2.8 0q-0.1 0-0.1 0c-0.7-0.2-1.4-0.1-2-0.1q-1 0.1-2 0c-0.4 0-0.7 0-1.1-0.1q-0.2 0-0.4 0.1c-0.5 0.2-0.8 0.1-1.1-0.1-0.4 0-0.7 0.1-0.9 0.1q-0.6-0.1-1.1-0.1c-0.4 0-0.7 0.1-1.1-0.1-0.1 0-0.4 0-0.5 0.1-0.1 0.2-0.4 0.2-0.6 0.2q-0.8-0.1-1.7-0.2c-0.1 0-0.3-0.1-0.2 0.1-0.1 0-0.2 0.1-0.2 0.1-0.2-0.1-0.3-0.2-0.5-0.4l-0.3 0.4c-0.3-0.2-0.6-0.2-1-0.1-0.7 0.1-1.4 0-2.1 0q-0.3 0-0.5 0l-0.1 0.2c-0.3 0-0.6 0-0.8-0.2-0.3-0.2-0.7-0.1-1 0-0.4 0-0.7 0-1 0-0.3-0.1-0.5-0.2-0.7-0.1-0.6 0.2-1.3 0.1-1.9 0.1-0.5 0.1-1.1-0.3-1.6 0.2 0-0.2-0.1-0.3-0.2-0.5l-0.1 0.4c-0.5 0-1.2 0.1-1.6-0.1-0.4-0.2-0.7-0.2-1-0.1-0.2 0.1-0.3 0.2-0.5 0-0.1-0.1-0.3 0-0.4 0-1.4 0.2-2.9 0.2-4.3 0.1-0.4-0.1-0.8 0-1.2 0q-0.4 0-0.9-0.1c-0.2 0-0.3 0.3-0.7 0.1-0.2-0.1-0.6 0-0.9 0-0.1 0-0.2 0.1-0.3 0.1-0.4-0.3-0.8-0.1-1.2-0.1-0.5 0-0.9 0.1-1.3 0-0.9-0.1-1.7 0.2-2.5-0.1-0.2 0-0.4 0.1-0.7 0.1-0.2 0-0.6 0.2-0.7-0.1-0.1-0.1-0.1-0.1-0.2-0.1-0.9 0.4-1.9-0.1-2.9 0.3-0.4-0.3-0.9 0.2-1.3-0.2-0.2 0.3-0.6-0.1-0.8 0-0.2 0.1-0.4 0.1-0.6 0.1-0.7-0.1-1.5-0.2-2.2-0.1-0.8 0.1-1.5 0.1-2.3 0.1-0.6 0-1.1 0-1.7 0-0.3 0-0.6 0-0.9 0.1 0 0-0.1 0-0.1 0-0.5-0.2-1 0.1-1.5 0-0.7 0-1.3 0-2 0-1.1 0-2.1 0.1-3.1 0-0.3 0-0.6 0.2-0.9 0.2q-0.9-0.1-1.9-0.1c-0.1 0-0.2-0.1-0.3 0-1.5 0.3-3 0-4.5 0.3-0.1 0-0.2-0.1-0.3-0.1-0.8-0.1-1.6 0-2.4 0.1-0.5 0-1 0-1.5 0.1-0.5 0.1-1 0-1.5 0-0.5 0-1 0-1.5 0.1q-0.4 0-0.8 0c0.1 0.5 0.2 0.6 0.7 0.5 1.1-0.2 2.2 0 3.4-0.1 0.7-0.1 1.5-0.1 2.2-0.2 0.5 0 0.9 0.2 1.4 0.2q0.5 0 1.1-0.1c0.6-0.1 1.3 0.1 1.9-0.1 0.3-0.1 0.7 0 1 0 1 0 2 0.1 2.9 0 0.4-0.1 0.8 0 1.2-0.1 1.4 0 2.9 0 4.3-0.1 0.6-0.1 1.3 0.1 1.9 0 0.8-0.1 1.7 0.3 2.5-0.1 0.1 0 0.2 0.1 0.3 0.1 0.5 0 0.9 0.1 1.4-0.1q0 0 0.1 0 1.4 0.1 2.8 0.2 0.3 0 0.5 0c0.5-0.1 1.1-0.2 1.6 0q0.1 0 0.3-0.1c0.4-0.1 0.8-0.2 1.2 0.1 0.7-0.3 1.5 0.1 2.2 0q0.4-0.1 0.8-0.2c0.2 0 0.5 0.2 0.5 0.2 0.3-0.4 0.7-0.1 1-0.1 0.4 0.1 0.7 0 1 0 0.3 0 0.5 0.1 0.8 0.1 0.5-0.5 1 0.1 1.4 0q0.4-0.1 0.7-0.2c0 0 0.1 0 0.1 0 0.4 0 0.7 0.3 1 0 0.1-0.1 0.4 0 0.6 0 1.2 0.1 2.4 0 3.6 0 0.6 0 1.1 0.2 1.6 0.1 0.4 0 0.8-0.1 1.2 0.1 0 0 0.1 0.1 0.1 0 0.5-0.3 1 0 1.5-0.1 0.3 0 0.6 0 0.7 0.1 0.4 0.2 0.7 0.1 0.9-0.1l0.4 0.1c0.1-0.3 0.3 0 0.4 0 0.5-0.2 1.1-0.1 1.7-0.1 1.3 0 2.6 0 4 0 0.1 0.1 0.2 0.2 0.4 0.3l0.5-0.4 0.2 0.4c0.6-0.2 1.2-0.5 1.9-0.2 0.1 0 0.4-0.2 0.5-0.1 0.5 0 1.1-0.2 1.4 0.3 0.1 0 0.2 0 0.2 0 0.5-0.2 1 0.1 1.5-0.1 0.4-0.1 1 0.3 1.4-0.1 0-0.1 0.3 0 0.4 0.1 0.4 0.2 0.8 0.1 1.1 0.1 0.1-0.1 0.2-0.1 0.2-0.2q0.2-0.1 0.3-0.2l0.2 0.4c0.4-0.6 1-0.2 1.5-0.3 0.2 0 0.3 0.1 0.5 0.2l0.1-0.2c0.3-0.1 0.7 0.7 1-0.1 0.2 0.1 0.2 0.5 0.6 0.4 0.2-0.1 0.2-0.1 0.4-0.3 1-0.2 2 0.1 2.9-0.1 0.4-0.1 0.6 0.1 0.8 0.4 0.2-0.5 0.6-0.4 1-0.4 0.4-0.1 0.8 0 1.2 0 0.5-0.1 0.7 0.3 1.1 0.3l0.1-0.4c0.4 0.1 0.5 0.6 1 0.4v-0.3c0.5-0.1 0.9 0 1.5 0.1l-0.2 0.1q0 0.1 0 0.1c0.2 0 0.3 0 0.4 0 0.7-0.3 0.7-0.3 1.4-0.2l-0.1 0.2 0.1 0.2 0.4-0.4c0.3 0.3 0.7 0.4 1 0.1 0.3-0.3 0.7-0.2 1.1-0.2 0.1 0 0.3 0.2 0.5 0.4 0-0.1 0.1-0.2 0.2-0.3 0.1-0.1 0.2-0.1 0.3-0.2 0.3 0.2 0.5 0.4 0.8 0.5l0.3-0.4 0.2 0.2q0.5 0.1 0.9 0.1 0.6 0.1 1.2 0.1c0.1 0 0.2 0.1 0.3 0.2 0.4-0.1 0.9-0.2 1.4 0z"/></g></svg>