<svg xmlns="http://www.w3.org/2000/svg" width="43.82" height="47.062" viewBox="0 0 43.82 47.062">
  <g id="Group_6294" data-name="Group 6294" transform="translate(0.316 1.3)">
    <g id="Group_6268" data-name="Group 6268" transform="translate(0 -1)">
      <path id="Path_65" data-name="Path 65" d="M74.125,37.3C69,35.154,68.809,25.945,68.806,25.713V19.535A14.41,14.41,0,0,0,59.324,6.3c-.012-3.057-2.7-7.3-5.993-7.3S47.35,3.242,47.338,6.3a14.411,14.411,0,0,0-9.481,13.236v6.178c0,.232-.2,9.441-5.319,11.587a1.239,1.239,0,0,0-.769,1.414,1.34,1.34,0,0,0,1.328,1H46.078a6.921,6.921,0,0,0,2.017,3.645,7.557,7.557,0,0,0,10.472,0,6.919,6.919,0,0,0,2.017-3.645H73.565a1.34,1.34,0,0,0,1.328-1A1.239,1.239,0,0,0,74.125,37.3ZM67.38,32.888a13.642,13.642,0,0,0,2.381,4.3H36.9a13.641,13.641,0,0,0,2.381-4.3ZM53.331,1.521c1.492,0,2.753,2.688,3.147,3.956a16.728,16.728,0,0,0-6.295,0C50.578,4.21,51.839,1.521,53.331,1.521Zm-12.757,24.2V19.535C40.574,13.009,46.3,7.7,53.331,7.7s12.757,5.309,12.757,11.835v6.2a24.482,24.482,0,0,0,.575,4.636H40A24.5,24.5,0,0,0,40.574,25.721Zm12.757,17.22a4.717,4.717,0,0,1-4.465-3.232H57.8A4.716,4.716,0,0,1,53.331,42.941Z" transform="translate(-31.737 1)" fill="#fff" stroke="#fff" stroke-width="0.6"/>
    </g>
  </g>
</svg>
