<svg xmlns="http://www.w3.org/2000/svg" width="140" height="59.621" viewBox="0 0 140 59.621">
  <g id="Group_7288" data-name="Group 7288" transform="translate(-79.287 -10)">
    <text id="קאסט" transform="translate(149.287 61.621)" fill="#fff" font-size="40" font-family="'CaravanDL2\.0AAA-150', 'Caravan DL \32 \.0 AAA'"><tspan x="-69.66" y="0">קאסט</tspan></text>
    <g id="Group_6982" data-name="Group 6982" transform="translate(128.287 10)">
      <g id="Group_6972" data-name="Group 6972">
        <g id="Group_6965" data-name="Group 6965" transform="translate(3.26 2.965)" opacity="0.3" style="mix-blend-mode: multiply;isolation: isolate">
          <g id="Group_6964" data-name="Group 6964">
            <path id="Path_1021" data-name="Path 1021" d="M200.486,163.467c-2.134,0-3.1-.926-3.536-1.7a5.113,5.113,0,0,1-.294-3.933,4.777,4.777,0,0,1-.568.037,2.394,2.394,0,0,1-2.378-1.423c-.215.64-.41,1.272-.586,1.888a6.49,6.49,0,0,0-.366,3.2,1.185,1.185,0,0,1-1.015,1.485,9.4,9.4,0,0,1-1.02.059c-2.136,0-3.1-.923-3.536-1.7a5.293,5.293,0,0,1-.154-4.367,100.288,100.288,0,0,1,3.919-9.708c.542-1.217,1.079-2.437,1.6-3.634a3.219,3.219,0,0,0,.239-.853h-.033a1.579,1.579,0,0,0-.3.031,5.267,5.267,0,0,0-2.805,2.792,11.787,11.787,0,0,0-1.537,5.06,1.187,1.187,0,0,1-1.649,1.033c-3.211-1.369-3.775-3.5-3.683-5.051a9.394,9.394,0,0,1,2.531-5.652,11.293,11.293,0,0,1,5.345-3.525l.079-.022a11.468,11.468,0,0,1,2.417-.276,7.184,7.184,0,0,1,3.823,1.011l.057.037a6.4,6.4,0,0,1,2.761,5.29c.013.338.02.673.022,1,.182-.3.366-.619.553-.937a16.153,16.153,0,0,0,2-5.023,1.188,1.188,0,0,1,1.165-.965h.029c3.163.072,4.295,1.5,4.687,2.682a8.2,8.2,0,0,1-.083,4.889,28.391,28.391,0,0,1-1.638,4.393c-.129.272-.272.583-.426.928l-.015.033c-.873,1.8-1.774,3.926-2.68,6.323a9.767,9.767,0,0,0-.873,5.1,1.187,1.187,0,0,1-.2.945,1.172,1.172,0,0,1-.833.487A8.87,8.87,0,0,1,200.486,163.467Z" transform="translate(-182.777 -137.211)" fill="#040506"/>
          </g>
        </g>
        <g id="Group_6967" data-name="Group 6967" transform="translate(0.296 0.89)">
          <g id="Group_6966" data-name="Group 6966">
            <path id="Path_1022" data-name="Path 1022" d="M200.024,164.3c-2.566,0-3.761-1.173-4.312-2.156a5.516,5.516,0,0,1-.6-3.47,3.514,3.514,0,0,1-1.485-.518c-.037.123-.072.246-.107.368a5.813,5.813,0,0,0-.362,2.728,2.074,2.074,0,0,1-1.777,2.6,10.053,10.053,0,0,1-1.116.066c-2.566,0-3.762-1.171-4.312-2.154a6.149,6.149,0,0,1-.224-5.082q.717-2.083,1.542-4.176a2.041,2.041,0,0,1-.8.16,2.062,2.062,0,0,1-.814-.167c-3.882-1.654-4.312-4.419-4.222-5.92a10.26,10.26,0,0,1,2.75-6.187,12.177,12.177,0,0,1,5.764-3.792c.046-.013.094-.026.14-.035a12.228,12.228,0,0,1,2.606-.3,8.048,8.048,0,0,1,4.288,1.143q.053.033.1.066a7.1,7.1,0,0,1,2.871,4.1,13.486,13.486,0,0,0,1.081-3.2,2.075,2.075,0,0,1,2.038-1.689h.048c3.68.083,5.029,1.836,5.51,3.292a9.04,9.04,0,0,1-.072,5.417,29.268,29.268,0,0,1-1.691,4.531c-.123.259-.263.564-.414.9l-.029.061c-.86,1.772-1.75,3.876-2.647,6.249-.963,2.551-.987,3.9-.836,4.591a2.078,2.078,0,0,1-1.8,2.507A10.09,10.09,0,0,1,200.024,164.3Zm-9.679-18.913c-.136.213-.261.426-.373.627a12.59,12.59,0,0,0-1.09,2.634q.388-.878.8-1.755C189.9,146.387,190.125,145.885,190.345,145.387Z" transform="translate(-181.425 -136.265)" fill="#040506"/>
          </g>
        </g>
        <g id="Group_6969" data-name="Group 6969">
          <g id="Group_6968" data-name="Group 6968">
            <path id="Path_1023" data-name="Path 1023" d="M199.889,163.894c-2.566,0-3.762-1.171-4.312-2.154a5.523,5.523,0,0,1-.6-3.472,3.542,3.542,0,0,1-1.485-.515c-.037.123-.072.246-.107.366a5.814,5.814,0,0,0-.362,2.728,2.074,2.074,0,0,1-1.777,2.6,10.084,10.084,0,0,1-1.116.066c-2.566,0-3.761-1.173-4.312-2.156a6.143,6.143,0,0,1-.224-5.08q.717-2.083,1.542-4.176a2.091,2.091,0,0,1-1.61-.007c-3.882-1.654-4.312-4.42-4.222-5.922a10.269,10.269,0,0,1,2.748-6.185,12.172,12.172,0,0,1,5.766-3.794c.046-.013.092-.024.14-.035a12.369,12.369,0,0,1,2.6-.3,8.063,8.063,0,0,1,4.29,1.145c.033.02.066.042.1.064a7.121,7.121,0,0,1,2.871,4.1,13.619,13.619,0,0,0,1.081-3.2,2.071,2.071,0,0,1,2.038-1.689h.048c3.68.083,5.027,1.836,5.51,3.29a9.039,9.039,0,0,1-.072,5.417,29.5,29.5,0,0,1-1.691,4.531c-.123.261-.263.566-.414.9l-.029.059c-.86,1.774-1.75,3.876-2.647,6.249-.963,2.553-.987,3.906-.836,4.591a2.075,2.075,0,0,1-1.8,2.507A10.057,10.057,0,0,1,199.889,163.894Zm-9.679-18.913c-.136.213-.261.426-.373.627a12.435,12.435,0,0,0-1.09,2.636q.388-.878.8-1.757C189.767,145.983,189.99,145.481,190.21,144.981Z" transform="translate(-181.29 -135.859)" fill="#040506"/>
          </g>
        </g>
        <g id="Group_6971" data-name="Group 6971" transform="translate(0.888 0.592)">
          <g id="Group_6970" data-name="Group 6970">
            <path id="Path_1024" data-name="Path 1024" d="M199.11,161.793a3.43,3.43,0,0,1-3.277-1.549,5.054,5.054,0,0,1-.145-4.126l.024-.07a.9.9,0,0,1-.265.088,4.7,4.7,0,0,1-.737.061,2.074,2.074,0,0,1-2.281-2.07c0-.068-.007-.136-.007-.208-.366,1.011-.687,2-.961,2.961a6.721,6.721,0,0,0-.366,3.358.9.9,0,0,1-.125.733.889.889,0,0,1-.638.382,8.759,8.759,0,0,1-.987.059,3.436,3.436,0,0,1-3.277-1.548,5.035,5.035,0,0,1-.132-4.13,100.655,100.655,0,0,1,3.908-9.675c.548-1.23,1.086-2.454,1.61-3.661.353-.886.243-1.171.241-1.173a.452.452,0,0,0-.314-.077,2,2,0,0,0-.368.039,5.506,5.506,0,0,0-3,2.937,12.063,12.063,0,0,0-1.573,5.189.9.9,0,0,1-.417.711.888.888,0,0,1-.472.134.877.877,0,0,1-.349-.07c-3.053-1.3-3.59-3.305-3.5-4.759a9.119,9.119,0,0,1,2.459-5.475,11.016,11.016,0,0,1,5.2-3.437l.061-.015a11.144,11.144,0,0,1,2.351-.272,6.9,6.9,0,0,1,3.669.969l.042.029a6.11,6.11,0,0,1,2.636,5.058q.039,1.063,0,2.079.556-.9,1.123-1.875a16.435,16.435,0,0,0,2.033-5.115.888.888,0,0,1,.873-.724h.02c2.4.055,3.887.888,4.413,2.478a7.9,7.9,0,0,1-.086,4.713,28.1,28.1,0,0,1-1.623,4.347q-.194.415-.428.934c-.888,1.831-1.794,3.968-2.7,6.374-.855,2.268-1.154,4.038-.886,5.264a.888.888,0,0,1-.77,1.075A9.356,9.356,0,0,1,199.11,161.793Z" transform="translate(-181.695 -136.129)" fill="#fff"/>
          </g>
        </g>
      </g>
      <g id="Group_6981" data-name="Group 6981" transform="translate(20.619 3.161)">
        <g id="Group_6974" data-name="Group 6974" transform="translate(2.698 2.454)" opacity="0.3" style="mix-blend-mode: multiply;isolation: isolate">
          <g id="Group_6973" data-name="Group 6973">
            <path id="Path_1025" data-name="Path 1025" d="M201.132,162.425a4.476,4.476,0,0,1-1.7-.336,3.743,3.743,0,0,1-2.342-2.533.983.983,0,0,1,.93-1.23c2.075-.039,2.829-.5,3.095-.772a4.216,4.216,0,0,0,1.086-1.737l.026-.077c.105-.27.208-.54.311-.812a5.272,5.272,0,0,1-.676.322,4.487,4.487,0,0,1-1.63.344,2.876,2.876,0,0,1-2.553-1.5c-.8-1.331-.616-3.365.57-6.218.007-.011.5-1.086.5-1.086.274-.59.553-1.189.838-1.805.333-.722.469-1.033.526-1.169a1.615,1.615,0,0,0,.118-.7c-.037,0-.077.007-.121.013a4.655,4.655,0,0,0-2.441,2.325,10.2,10.2,0,0,0-1.465,4.211.984.984,0,0,1-1.371.807c-2.628-1.145-3.022-2.926-2.889-4.22a8.137,8.137,0,0,1,2.283-4.654,9.874,9.874,0,0,1,4.525-2.9l.046-.011a9.292,9.292,0,0,1,2.136-.274,4.876,4.876,0,0,1,3.6,1.375,1.286,1.286,0,0,1,.1.118,4.931,4.931,0,0,1,.43,4.415,30.4,30.4,0,0,1-1.63,4.382l-.075.167a24.847,24.847,0,0,0,2.351-3.891,18.68,18.68,0,0,0,1.722-5.249.982.982,0,0,1,.958-.82h.059a5.441,5.441,0,0,1,2.231.45,2.859,2.859,0,0,1,1.6,1.555.966.966,0,0,1,.064.261,7.631,7.631,0,0,1-.638,2.632c-.417,1.305-.921,2.805-1.5,4.461-.568,1.638-1.092,3.13-1.557,4.435q-.688,1.931-.781,2.193l-.013.035c-.11.272-.215.546-.318.822a24.894,24.894,0,0,1-1.5,3.422,6.384,6.384,0,0,1-2.663,2.726l-.072.033A5.523,5.523,0,0,1,201.132,162.425Z" transform="translate(-191.922 -138.419)" fill="#040506"/>
          </g>
        </g>
        <g id="Group_6976" data-name="Group 6976" transform="translate(0.246 0.737)">
          <g id="Group_6975" data-name="Group 6975">
            <path id="Path_1026" data-name="Path 1026" d="M200.749,163.113a5.2,5.2,0,0,1-1.983-.39,4.427,4.427,0,0,1-2.774-3.029,1.721,1.721,0,0,1,1.627-2.152c1.983-.04,2.5-.467,2.584-.553a4.105,4.105,0,0,0,.64-.822,4.559,4.559,0,0,1-1,.116,3.626,3.626,0,0,1-3.185-1.851,5.283,5.283,0,0,1-.436-3.88,1.746,1.746,0,0,1-.511.461,1.726,1.726,0,0,1-1.559.094c-3.2-1.393-3.457-3.711-3.327-4.97a8.836,8.836,0,0,1,2.474-5.075,10.552,10.552,0,0,1,4.863-3.112l.079-.02a10.046,10.046,0,0,1,2.307-.294,5.575,5.575,0,0,1,4.121,1.592,1.751,1.751,0,0,1,.175.206,4.707,4.707,0,0,1,.873,2.6,17.523,17.523,0,0,0,.6-2.467A1.72,1.72,0,0,1,208,138.134h.066a6.217,6.217,0,0,1,2.529.511,3.6,3.6,0,0,1,1.992,1.961,1.741,1.741,0,0,1,.11.461c.039.4.013.794-.669,2.926-.421,1.309-.926,2.816-1.5,4.479-.568,1.641-1.094,3.134-1.559,4.439q-.688,1.931-.781,2.193l-.024.061c-.105.261-.206.526-.3.792a25.733,25.733,0,0,1-1.542,3.525,7.135,7.135,0,0,1-2.97,3.033c-.042.02-.081.039-.125.057A6.247,6.247,0,0,1,200.749,163.113Zm-2.529-17.8c-.1.149-.2.309-.3.478a10.148,10.148,0,0,0-1.255,3.139q.22-.655.52-1.377l.026-.057.485-1.053C197.869,146.067,198.045,145.692,198.22,145.31Z" transform="translate(-190.803 -137.636)" fill="#040506"/>
          </g>
        </g>
        <g id="Group_6978" data-name="Group 6978">
          <g id="Group_6977" data-name="Group 6977">
            <path id="Path_1027" data-name="Path 1027" d="M200.637,162.777a5.2,5.2,0,0,1-1.983-.39,4.427,4.427,0,0,1-2.775-3.029,1.718,1.718,0,0,1,1.627-2.149c1.983-.039,2.5-.467,2.584-.553a4.165,4.165,0,0,0,.64-.823,4.549,4.549,0,0,1-1,.114,3.626,3.626,0,0,1-3.185-1.851,5.282,5.282,0,0,1-.437-3.88,1.725,1.725,0,0,1-1.384.7,1.743,1.743,0,0,1-.687-.143c-3.2-1.393-3.457-3.713-3.327-4.97a8.855,8.855,0,0,1,2.474-5.077,10.575,10.575,0,0,1,4.863-3.112l.079-.02a10.046,10.046,0,0,1,2.307-.294,5.58,5.58,0,0,1,4.121,1.592,1.558,1.558,0,0,1,.175.206,4.713,4.713,0,0,1,.873,2.6,17.524,17.524,0,0,0,.6-2.467,1.716,1.716,0,0,1,1.678-1.43l.066,0a6.175,6.175,0,0,1,2.529.513,3.587,3.587,0,0,1,1.991,1.959,1.761,1.761,0,0,1,.11.461c.04.4.013.794-.669,2.926-.421,1.309-.926,2.818-1.5,4.479-.568,1.641-1.094,3.134-1.559,4.439l-.781,2.193-.024.061c-.1.263-.206.526-.3.794a25.7,25.7,0,0,1-1.542,3.522,7.11,7.11,0,0,1-2.97,3.033c-.042.022-.081.042-.123.059A6.3,6.3,0,0,1,200.637,162.777Zm-2.527-17.8c-.1.151-.2.309-.3.48a10.126,10.126,0,0,0-1.255,3.139c.147-.439.32-.9.52-1.38l.026-.057.485-1.053C197.757,145.731,197.933,145.356,198.11,144.974Z" transform="translate(-190.691 -137.3)" fill="#040506"/>
          </g>
        </g>
        <g id="Group_6980" data-name="Group 6980" transform="translate(0.735 0.491)">
          <g id="Group_6979" data-name="Group 6979">
            <path id="Path_1028" data-name="Path 1028" d="M199.991,161.038a4.223,4.223,0,0,1-1.61-.318,3.462,3.462,0,0,1-2.2-2.367.739.739,0,0,1,.7-.923c2.051-.039,2.908-.483,3.264-.844a4.493,4.493,0,0,0,1.147-1.842l.02-.055q.289-.757.577-1.52a5.424,5.424,0,0,1-1.261.713,4.236,4.236,0,0,1-1.54.327,2.645,2.645,0,0,1-2.345-1.377c-.759-1.259-.566-3.22.59-6l.493-1.079c.276-.586.555-1.187.84-1.8s.458-1.007.535-1.193a1.589,1.589,0,0,0,.09-1,.591.591,0,0,0-.16-.018,1.594,1.594,0,0,0-.215.018,4.854,4.854,0,0,0-2.6,2.441,10.483,10.483,0,0,0-1.5,4.312.731.731,0,0,1-.733.667.729.729,0,0,1-.294-.061c-2.494-1.086-2.867-2.757-2.744-3.968a7.893,7.893,0,0,1,2.222-4.514,9.591,9.591,0,0,1,4.411-2.832l.035-.009a9.058,9.058,0,0,1,2.079-.268,4.633,4.633,0,0,1,3.426,1.3.565.565,0,0,1,.075.088,4.7,4.7,0,0,1,.395,4.2,30.271,30.271,0,0,1-1.619,4.347c-.186.426-.355.825-.5,1.173-.064.165-.116.311-.162.443.2-.217.452-.5.748-.871a24.047,24.047,0,0,0,2.63-4.257,18.92,18.92,0,0,0,1.744-5.319.74.74,0,0,1,.719-.614h.057a5.209,5.209,0,0,1,2.13.428,2.623,2.623,0,0,1,1.476,1.421.75.75,0,0,1,.048.2,7.822,7.822,0,0,1-.627,2.533c-.419,1.3-.921,2.8-1.5,4.457-.57,1.636-1.092,3.128-1.557,4.43s-.79,2.211-.792,2.22c-.11.274-.217.551-.32.831a24.727,24.727,0,0,1-1.483,3.389,6.136,6.136,0,0,1-2.562,2.625l-.053.026A5.313,5.313,0,0,1,199.991,161.038Z" transform="translate(-191.027 -137.524)" fill="#fff"/>
          </g>
        </g>
      </g>
    </g>
  </g>
</svg>
