<svg xmlns="http://www.w3.org/2000/svg" width="23.3" height="23.3" viewBox="0 0 23.3 23.3">
  <path id="iconmonstr-instagram-11_2_" data-name="iconmonstr-instagram-11 (2)" d="M11.5,2.073c3.071,0,3.435.012,4.648.067,3.117.142,4.572,1.621,4.714,4.714.056,1.212.066,1.576.066,4.647s-.012,3.435-.066,4.647c-.143,3.091-1.595,4.572-4.714,4.714-1.213.056-1.576.067-4.648.067s-3.435-.011-4.647-.067c-3.124-.143-4.572-1.628-4.714-4.715-.056-1.212-.067-1.575-.067-4.647s.012-3.434.067-4.647c.143-3.093,1.595-4.572,4.714-4.714,1.213-.055,1.576-.066,4.647-.066ZM11.5,0C8.377,0,7.986.013,6.759.069,2.583.261.262,2.578.07,6.758.013,7.986,0,8.377,0,11.5s.013,3.515.069,4.742c.192,4.176,2.509,6.5,6.689,6.689C7.986,22.987,8.377,23,11.5,23s3.515-.013,4.742-.069c4.173-.192,6.5-2.509,6.688-6.689.057-1.227.07-1.619.07-4.742s-.013-3.514-.069-4.741C22.743,2.587,20.423.262,16.243.07,15.015.013,14.623,0,11.5,0Zm0,5.595A5.906,5.906,0,1,0,17.405,11.5,5.905,5.905,0,0,0,11.5,5.595Zm0,9.739A3.833,3.833,0,1,1,15.333,11.5,3.833,3.833,0,0,1,11.5,15.333ZM17.639,3.982a1.38,1.38,0,1,0,1.379,1.38A1.381,1.381,0,0,0,17.639,3.982Z" transform="translate(0.15 0.15)" stroke="#fff" stroke-width="0.3"/>
</svg>
