<svg xmlns="http://www.w3.org/2000/svg" width="25.704" height="25.705" viewBox="0 0 25.704 25.705">
  <g id="logo" transform="translate(-20.502 -20.5)">
    <path id="Subtraction_2" data-name="Subtraction 2" d="M5.479,25.7a1.023,1.023,0,0,1-1.027-1L4.38,22.42a1.029,1.029,0,0,0-.345-.733A12.182,12.182,0,0,1,0,12.466,12.241,12.241,0,0,1,3.71,3.547,13.066,13.066,0,0,1,12.852,0a13.066,13.066,0,0,1,9.141,3.547A12.235,12.235,0,0,1,25.7,12.466a12.239,12.239,0,0,1-3.712,8.921,13.062,13.062,0,0,1-9.141,3.547,13.971,13.971,0,0,1-3.72-.5,1.05,1.05,0,0,0-.272-.037,1.015,1.015,0,0,0-.414.088L5.895,25.616A1.027,1.027,0,0,1,5.479,25.7ZM10.541,9.223a1.922,1.922,0,0,0-1.633.9l-3.774,5.99a.584.584,0,0,0-.025.612.632.632,0,0,0,.542.329.609.609,0,0,0,.368-.129l4.058-3.078a.769.769,0,0,1,.928,0l3,2.252a1.924,1.924,0,0,0,2.784-.515l3.776-5.99a.59.59,0,0,0,.025-.611.635.635,0,0,0-.544-.33.607.607,0,0,0-.368.129l-4.055,3.077a.756.756,0,0,1-.465.158.779.779,0,0,1-.465-.153l-3-2.253A1.915,1.915,0,0,0,10.541,9.223Z" transform="translate(20.502 20.5)"/>
  </g>
</svg>
