<svg xmlns="http://www.w3.org/2000/svg" width="26.299" height="25.986" viewBox="0 0 26.299 25.986">
  <g id="Group_7282" data-name="Group 7282" transform="translate(0.75 0.75)">
    <g id="Group_7278" data-name="Group 7278">
      <path id="Path_1253" data-name="Path 1253" d="M43.94,32.858c-.006.538-.033,1.074-.072,1.61-.007.091-.01.183-.011.275,0,.2.111.28.309.262a.891.891,0,0,0,.213-.05c.2-.069.39-.141.583-.215a7.807,7.807,0,0,1,.989-.326,1.5,1.5,0,0,1,.688-.027.83.83,0,0,1,.6,1.147,1.207,1.207,0,0,1-.228.351,2.47,2.47,0,0,1-.458.393c-.2.133-.4.263-.595.394-.331.218-.664.435-.993.655-.137.092-.27.189-.4.289a1.53,1.53,0,0,0-.2.187.645.645,0,0,0-.17.488,2.438,2.438,0,0,0,.092.521,6.479,6.479,0,0,0,.689,1.55,8.882,8.882,0,0,0,2.046,2.326A11.637,11.637,0,0,0,49.258,44.1c.071.035.14.073.209.113a.425.425,0,0,1,.134.123.214.214,0,0,1,.015.241.608.608,0,0,1-.156.177,1.8,1.8,0,0,1-.292.187,6.53,6.53,0,0,1-1.429.555c-.212.057-.423.118-.633.18a2.4,2.4,0,0,0-.42.178.753.753,0,0,0-.407.555c-.027.138-.043.277-.068.415a.545.545,0,0,1-.53.535,3.189,3.189,0,0,1-.364.04c-.3.017-.61.025-.915.042a7.923,7.923,0,0,0-2.03.361,4.3,4.3,0,0,0-.8.356c-.27.155-.536.316-.8.477a8.554,8.554,0,0,1-1.315.678,5.838,5.838,0,0,1-1.6.369,6.855,6.855,0,0,1-1.39-.016,5.673,5.673,0,0,1-1.967-.6c-.288-.147-.566-.313-.842-.481q-.3-.186-.611-.368a5.188,5.188,0,0,0-1.566-.6,8.7,8.7,0,0,0-1.524-.189c-.268-.01-.537-.022-.805-.037a2.3,2.3,0,0,1-.452-.067.485.485,0,0,1-.385-.4c-.024-.12-.043-.24-.063-.36,0-.024-.005-.049-.009-.073a.83.83,0,0,0-.5-.69,3.937,3.937,0,0,0-.566-.2c-.335-.093-.672-.175-1-.292a5.886,5.886,0,0,1-.834-.372c-.08-.044-.158-.092-.234-.144a.873.873,0,0,1-.14-.117A.264.264,0,0,1,25,44.237a1.582,1.582,0,0,1,.286-.161,11.559,11.559,0,0,0,1.975-1.218,8.992,8.992,0,0,0,2.214-2.418,6.542,6.542,0,0,0,.73-1.611,2.329,2.329,0,0,0,.1-.557.655.655,0,0,0-.181-.484,1.727,1.727,0,0,0-.247-.218c-.254-.19-.519-.365-.784-.539-.337-.221-.675-.439-1.012-.66A3.366,3.366,0,0,1,27.6,36a1.613,1.613,0,0,1-.278-.339.863.863,0,0,1-.05-.824.733.733,0,0,1,.424-.407,1.239,1.239,0,0,1,.667-.054,4.375,4.375,0,0,1,.774.217c.258.093.513.194.77.29a1.821,1.821,0,0,0,.367.109.515.515,0,0,0,.09.013c.148,0,.27-.053.269-.251,0-.165-.009-.33-.02-.494a24.639,24.639,0,0,1-.048-2.673,9.3,9.3,0,0,1,.209-1.687,5.459,5.459,0,0,1,.977-2.108,6.349,6.349,0,0,1,3.453-2.3,7.657,7.657,0,0,1,2.337-.261,7.286,7.286,0,0,1,2.428.485,6.177,6.177,0,0,1,2,1.229A5.677,5.677,0,0,1,43.579,29.4a7.282,7.282,0,0,1,.281,1.341A16.414,16.414,0,0,1,43.94,32.858Z" transform="translate(-24.857 -25.226)" fill="#fff" stroke="#000" stroke-linecap="round" stroke-linejoin="round" stroke-width="1.5"/>
    </g>
  </g>
</svg>
