<svg xmlns="http://www.w3.org/2000/svg" width="20.44" height="20.44" viewBox="0 0 20.44 20.44">
  <path id="tiktok-share-icon-black-1" d="M22.007,4H6.433A2.436,2.436,0,0,0,4,6.433V22.007A2.436,2.436,0,0,0,6.433,24.44H22.007a2.436,2.436,0,0,0,2.433-2.433V6.433A2.436,2.436,0,0,0,22.007,4m-1.944,8.917q-.167.016-.336.017a3.646,3.646,0,0,1-3.051-1.649V16.9a4.15,4.15,0,1,1-4.15-4.15c.087,0,.171.008.256.013v2.045a2.113,2.113,0,1,0-.256,4.21,2.17,2.17,0,0,0,2.2-2.092l.02-9.536h1.956a3.644,3.644,0,0,0,3.359,3.253v2.273" transform="translate(-4 -4)"/>
</svg>
