<svg xmlns="http://www.w3.org/2000/svg" width="24.205" height="24.313" viewBox="0 0 24.205 24.313">
  <g id="Group_7286" data-name="Group 7286" transform="translate(-26.5 -23.307)">
    <path id="WA_Logo" data-name="WA Logo" d="M1.71,18.07A12.052,12.052,0,1,1,12.153,24.1h-.005a12.047,12.047,0,0,1-5.759-1.466L0,24.313Zm5.341,2.6a10,10,0,0,0,5.1,1.4h0a10.014,10.014,0,1,0-8.486-4.692l.238.379-1.012,3.7,3.791-.994Zm7.069-3.008a17.31,17.31,0,0,1-1.717-.634,13.425,13.425,0,0,1-5.144-4.545,5.857,5.857,0,0,1-1.23-3.114A3.376,3.376,0,0,1,7.083,6.86a1.105,1.105,0,0,1,.8-.377c.2,0,.4,0,.577.01h.068c.176,0,.394,0,.61.516.251.6.853,2.085.928,2.235a.555.555,0,0,1,.025.527,2.062,2.062,0,0,1-.3.5c-.151.176-.316.393-.452.527-.151.15-.308.313-.132.615A9.07,9.07,0,0,0,10.885,13.5,8.214,8.214,0,0,0,13.306,15c.3.151.477.126.652-.075s.753-.879.954-1.18.4-.251.677-.15,1.756.829,2.058.98.5.226.577.351a2.518,2.518,0,0,1-.176,1.432,3.1,3.1,0,0,1-2.033,1.431,4.943,4.943,0,0,1-.731.058A3.824,3.824,0,0,1,14.12,17.665Z" transform="translate(26.5 23.307)"/>
  </g>
</svg>
